2, 960, Note_on_c, 0, 76, 71
2, 1200, Note_off_c, 0, 76, 0
2, 1200, Note_on_c, 0, 75, 38
2, 1440, Note_off_c, 0, 75, 0
2, 1440, Note_on_c, 0, 76, 57
2, 1680, Note_off_c, 0, 76, 0
2, 1680, Note_on_c, 0, 75, 70
2, 1920, Note_off_c, 0, 75, 0
2, 1920, Note_on_c, 0, 76, 76
2, 2160, Note_off_c, 0, 76, 0
2, 2160, Note_on_c, 0, 71, 76
2, 2400, Note_off_c, 0, 71, 0
2, 2400, Note_on_c, 0, 74, 76
2, 2640, Note_off_c, 0, 74, 0
2, 2640, Note_on_c, 0, 72, 83
2, 2880, Note_off_c, 0, 72, 0
2, 2880, Note_on_c, 0, 69, 89
2, 2880, Sequencer_specific, 4, 5, 15, 15, 2
2, 2880, Note_on_c, 0, 45, 64
2, 3120, Note_off_c, 0, 45, 0
2, 3120, Note_on_c, 0, 52, 64
2, 3360, Note_off_c, 0, 52, 0
2, 3360, Note_on_c, 0, 57, 70
2, 3600, Note_off_c, 0, 69, 0
2, 3600, Note_off_c, 0, 57, 0
2, 3600, Note_on_c, 0, 60, 76
2, 3840, Note_off_c, 0, 60, 0
2, 3840, Note_on_c, 0, 64, 76
2, 4080, Note_off_c, 0, 64, 0
2, 4080, Note_on_c, 0, 69, 76
2, 4320, Note_off_c, 0, 69, 0
2, 4320, Note_on_c, 0, 71, 83
2, 4320, Sequencer_specific, 4, 5, 15, 15, 2
2, 4320, Note_on_c, 0, 40, 64
2, 4560, Note_off_c, 0, 40, 0
2, 4560, Note_on_c, 0, 52, 64
2, 4800, Note_off_c, 0, 52, 0
2, 4800, Note_on_c, 0, 56, 70
2, 5040, Note_off_c, 0, 71, 0
2, 5040, Note_off_c, 0, 56, 0
2, 5040, Note_on_c, 0, 64, 76
2, 5280, Note_off_c, 0, 64, 0
2, 5280, Note_on_c, 0, 68, 76
2, 5520, Note_off_c, 0, 68, 0
2, 5520, Note_on_c, 0, 71, 76
2, 5760, Note_off_c, 0, 71, 0
2, 5760, Note_on_c, 0, 72, 83
2, 5760, Note_on_c, 0, 45, 64
2, 6000, Note_off_c, 0, 45, 0
2, 6000, Note_on_c, 0, 52, 70
2, 6240, Note_off_c, 0, 52, 0
2, 6240, Note_on_c, 0, 57, 76
2, 6480, Note_off_c, 0, 72, 0
2, 6480, Note_off_c, 0, 57, 0
2, 6480, Note_on_c, 0, 64, 76
2, 6720, Note_off_c, 0, 64, 0
2, 6720, Note_on_c, 0, 76, 76
2, 6960, Note_off_c, 0, 76, 0
2, 6960, Note_on_c, 0, 75, 64
2, 7200, Note_off_c, 0, 75, 0
2, 7200, Note_on_c, 0, 76, 76
2, 7440, Note_off_c, 0, 76, 0
2, 7440, Note_on_c, 0, 75, 70
2, 7680, Note_off_c, 0, 75, 0
2, 7680, Note_on_c, 0, 76, 76
2, 7920, Note_off_c, 0, 76, 0
2, 7920, Note_on_c, 0, 71, 76
2, 8160, Note_off_c, 0, 71, 0
2, 8160, Note_on_c, 0, 74, 76
2, 8400, Note_off_c, 0, 74, 0
2, 8400, Note_on_c, 0, 72, 76
2, 8640, Note_off_c, 0, 72, 0
2, 8640, Note_on_c, 0, 69, 83
2, 8640, Sequencer_specific, 4, 5, 15, 15, 2
2, 8640, Note_on_c, 0, 45, 57
2, 8880, Note_off_c, 0, 45, 0
2, 8880, Note_on_c, 0, 52, 64
2, 9120, Note_off_c, 0, 52, 0
2, 9120, Note_on_c, 0, 57, 70
2, 9360, Note_off_c, 0, 69, 0
2, 9360, Note_off_c, 0, 57, 0
2, 9360, Note_on_c, 0, 60, 76
2, 9600, Note_off_c, 0, 60, 0
2, 9600, Note_on_c, 0, 64, 76
2, 9840, Note_off_c, 0, 64, 0
2, 9840, Note_on_c, 0, 69, 76
2, 10080, Note_off_c, 0, 69, 0
2, 10080, Note_on_c, 0, 71, 83
2, 10080, Sequencer_specific, 4, 5, 15, 15, 2
2, 10080, Note_on_c, 0, 40, 64
2, 10320, Note_off_c, 0, 40, 0
2, 10320, Note_on_c, 0, 52, 70
2, 10560, Note_off_c, 0, 52, 0
2, 10560, Note_on_c, 0, 56, 76
2, 10800, Note_off_c, 0, 71, 0
2, 10800, Note_off_c, 0, 56, 0
2, 10800, Note_on_c, 0, 64, 76
2, 11040, Note_off_c, 0, 64, 0
2, 11040, Note_on_c, 0, 72, 76
2, 11280, Note_off_c, 0, 72, 0
2, 11280, Note_on_c, 0, 71, 76
2, 11520, Note_off_c, 0, 71, 0
2, 11520, Note_on_c, 0, 69, 83
2, 11520, Note_on_c, 0, 45, 64
2, 11760, Note_off_c, 0, 45, 0
2, 11760, Note_on_c, 0, 52, 70
2, 12000, Note_off_c, 0, 52, 0
2, 12000, Note_on_c, 0, 57, 70
2, 12240, Note_off_c, 0, 69, 0
2, 12240, Note_off_c, 0, 57, 0
2, 12480, Note_on_c, 0, 76, 64
2, 12720, Note_off_c, 0, 76, 0
2, 12720, Note_on_c, 0, 75, 70
2, 12960, Note_off_c, 0, 75, 0
2, 12960, Note_on_c, 0, 76, 70
2, 13200, Note_off_c, 0, 76, 0
2, 13200, Note_on_c, 0, 75, 64
2, 13440, Note_off_c, 0, 75, 0
2, 13440, Note_on_c, 0, 76, 76
2, 13680, Note_off_c, 0, 76, 0
2, 13680, Note_on_c, 0, 71, 76
2, 13920, Note_off_c, 0, 71, 0
2, 13920, Note_on_c, 0, 74, 76
2, 14160, Note_off_c, 0, 74, 0
2, 14160, Note_on_c, 0, 72, 76
2, 14400, Note_off_c, 0, 72, 0
2, 14400, Note_on_c, 0, 69, 76
2, 14400, Note_on_c, 0, 45, 76
2, 14640, Note_off_c, 0, 45, 0
2, 14640, Note_on_c, 0, 52, 76
2, 14880, Note_off_c, 0, 52, 0
2, 14880, Note_on_c, 0, 57, 76
2, 15120, Note_off_c, 0, 57, 0
2, 15120, Note_off_c, 0, 69, 0
2, 15120, Note_on_c, 0, 60, 76
2, 15360, Note_off_c, 0, 60, 0
2, 15360, Note_on_c, 0, 64, 76
2, 15600, Note_off_c, 0, 64, 0
2, 15600, Note_on_c, 0, 69, 76
2, 15840, Note_off_c, 0, 69, 0
2, 15840, Note_on_c, 0, 71, 83
2, 15840, Note_on_c, 0, 40, 64
2, 16080, Note_off_c, 0, 40, 0
2, 16080, Note_on_c, 0, 52, 70
2, 16320, Note_off_c, 0, 52, 0
2, 16320, Note_on_c, 0, 56, 76
2, 16560, Note_off_c, 0, 71, 0
2, 16560, Note_off_c, 0, 56, 0
2, 16560, Note_on_c, 0, 64, 76
2, 16800, Note_off_c, 0, 64, 0
2, 16800, Note_on_c, 0, 68, 76
2, 17040, Note_off_c, 0, 68, 0
2, 17040, Note_on_c, 0, 71, 76
2, 17280, Note_off_c, 0, 71, 0
2, 17280, Note_on_c, 0, 72, 76
2, 17280, Note_on_c, 0, 45, 64
2, 17520, Note_off_c, 0, 45, 0
2, 17520, Note_on_c, 0, 52, 76
2, 17760, Note_off_c, 0, 52, 0
2, 17760, Note_off_c, 0, 72, 0
2, 17760, Note_on_c, 0, 57, 76
2, 18000, Note_off_c, 0, 57, 0
2, 18000, Note_on_c, 0, 64, 76
2, 18240, Note_off_c, 0, 64, 0
2, 18240, Note_on_c, 0, 76, 76
2, 18480, Note_off_c, 0, 76, 0
2, 18480, Note_on_c, 0, 75, 70
2, 18720, Note_off_c, 0, 75, 0
2, 18720, Note_on_c, 0, 76, 76
2, 18960, Note_off_c, 0, 76, 0
2, 18960, Note_on_c, 0, 75, 70
2, 19200, Note_off_c, 0, 75, 0
2, 19200, Note_on_c, 0, 76, 76
2, 19440, Note_off_c, 0, 76, 0
2, 19440, Note_on_c, 0, 71, 76
2, 19680, Note_off_c, 0, 71, 0
2, 19680, Note_on_c, 0, 74, 76
2, 19920, Note_off_c, 0, 74, 0
2, 19920, Note_on_c, 0, 72, 76
2, 20160, Note_off_c, 0, 72, 0
2, 20160, Note_on_c, 0, 69, 76
2, 20160, Note_on_c, 0, 45, 70
2, 20400, Note_off_c, 0, 45, 0
2, 20400, Note_on_c, 0, 52, 76
2, 20640, Note_off_c, 0, 52, 0
2, 20640, Note_off_c, 0, 69, 0
2, 20640, Note_on_c, 0, 57, 76
2, 20880, Note_off_c, 0, 57, 0
2, 20880, Note_on_c, 0, 60, 76
2, 21120, Note_off_c, 0, 60, 0
2, 21120, Note_on_c, 0, 64, 76
2, 21360, Note_off_c, 0, 64, 0
2, 21360, Note_on_c, 0, 69, 76
2, 21600, Note_off_c, 0, 69, 0
2, 21600, Note_on_c, 0, 71, 76
2, 21600, Note_on_c, 0, 40, 64
2, 21840, Note_off_c, 0, 40, 0
2, 21840, Note_on_c, 0, 52, 76
2, 22080, Note_off_c, 0, 52, 0
2, 22080, Note_off_c, 0, 71, 0
2, 22080, Note_on_c, 0, 56, 76
2, 22320, Note_off_c, 0, 56, 0
2, 22320, Note_on_c, 0, 64, 76
2, 22560, Note_off_c, 0, 64, 0
2, 22560, Note_on_c, 0, 72, 76
2, 22800, Note_off_c, 0, 72, 0
2, 22800, Note_on_c, 0, 71, 76
2, 23040, Note_off_c, 0, 71, 0
2, 23040, Note_on_c, 0, 69, 83
2, 23040, Note_on_c, 0, 45, 76
2, 23280, Note_off_c, 0, 45, 0
2, 23280, Note_on_c, 0, 52, 76
2, 23520, Note_off_c, 0, 69, 0
2, 23520, Note_off_c, 0, 52, 0
2, 23520, Note_on_c, 0, 57, 76
2, 23760, Note_off_c, 0, 57, 0
2, 23760, Note_on_c, 0, 71, 76
2, 24000, Note_off_c, 0, 71, 0
2, 24000, Note_on_c, 0, 72, 76
2, 24240, Note_off_c, 0, 72, 0
2, 24240, Note_on_c, 0, 74, 76
2, 24480, Note_off_c, 0, 74, 0
2, 24480, Note_on_c, 0, 76, 76
2, 24480, Sequencer_specific, 4, 5, 15, 15, 17
2, 24480, Note_on_c, 0, 48, 70
2, 24720, Note_off_c, 0, 48, 0
2, 24720, Note_on_c, 0, 55, 76
2, 24960, Note_off_c, 0, 55, 0
2, 24960, Note_on_c, 0, 60, 76
2, 24960, Sequencer_specific, 4, 5, 15, 15, 8
2, 25200, Note_off_c, 0, 76, 0
2, 25200, Note_off_c, 0, 60, 0
2, 25200, Note_on_c, 0, 67, 76
2, 25440, Note_off_c, 0, 67, 0
2, 25440, Note_on_c, 0, 77, 76
2, 25680, Note_off_c, 0, 77, 0
2, 25680, Note_on_c, 0, 76, 76
2, 25920, Note_off_c, 0, 76, 0
2, 25920, Note_on_c, 0, 74, 76
2, 25920, Sequencer_specific, 4, 5, 15, 15, 1
2, 25920, Note_on_c, 0, 43, 64
2, 26160, Note_off_c, 0, 43, 0
2, 26160, Note_on_c, 0, 55, 76
2, 26400, Note_off_c, 0, 55, 0
2, 26400, Note_on_c, 0, 59, 76
2, 26640, Note_off_c, 0, 74, 0
2, 26640, Note_off_c, 0, 59, 0
2, 26640, Note_on_c, 0, 65, 76
2, 26880, Note_off_c, 0, 65, 0
2, 26880, Note_on_c, 0, 76, 76
2, 27120, Note_off_c, 0, 76, 0
2, 27120, Note_on_c, 0, 74, 76
2, 27360, Note_off_c, 0, 74, 0
2, 27360, Note_on_c, 0, 72, 76
2, 27360, Note_on_c, 0, 45, 64
2, 27600, Note_off_c, 0, 45, 0
2, 27600, Note_on_c, 0, 52, 76
2, 27840, Note_off_c, 0, 52, 0
2, 27840, Note_on_c, 0, 57, 76
2, 28080, Note_off_c, 0, 57, 0
2, 28080, Note_off_c, 0, 72, 0
2, 28080, Note_on_c, 0, 64, 76
2, 28320, Note_off_c, 0, 64, 0
2, 28320, Note_on_c, 0, 74, 76
2, 28560, Note_off_c, 0, 74, 0
2, 28560, Note_on_c, 0, 72, 76
2, 28800, Note_off_c, 0, 72, 0
2, 28800, Note_on_c, 0, 71, 76
2, 28800, Note_on_c, 0, 40, 64
2, 29040, Note_off_c, 0, 40, 0
2, 29040, Note_on_c, 0, 52, 76
2, 29280, Note_off_c, 0, 52, 0
2, 29280, Note_off_c, 0, 71, 0
2, 29280, Note_on_c, 0, 64, 76
2, 29280, Sequencer_specific, 4, 5, 15, 15, 8
2, 29520, Note_off_c, 0, 64, 0
2, 29520, Note_on_c, 0, 64, 76
2, 29760, Note_off_c, 0, 64, 0
2, 29760, Note_on_c, 0, 76, 76
2, 30000, Note_off_c, 0, 76, 0
2, 30000, Note_on_c, 0, 64, 76
2, 30240, Note_off_c, 0, 64, 0
2, 30240, Note_on_c, 0, 76, 76
2, 30480, Note_off_c, 0, 76, 0
2, 30480, Note_on_c, 0, 76, 70
2, 30720, Note_off_c, 0, 76, 0
2, 30720, Note_on_c, 0, 88, 64
2, 30960, Note_off_c, 0, 88, 0
2, 30960, Note_on_c, 0, 75, 70
2, 31200, Note_off_c, 0, 75, 0
2, 31200, Note_on_c, 0, 76, 76
2, 31440, Note_off_c, 0, 76, 0
2, 31440, Note_on_c, 0, 75, 76
2, 31680, Note_off_c, 0, 75, 0
2, 31680, Note_on_c, 0, 76, 76
2, 31920, Note_off_c, 0, 76, 0
2, 31920, Note_on_c, 0, 75, 76
2, 32160, Note_off_c, 0, 75, 0
2, 32160, Note_on_c, 0, 76, 76
2, 32400, Note_off_c, 0, 76, 0
2, 32400, Note_on_c, 0, 71, 76
2, 32640, Note_off_c, 0, 71, 0
2, 32640, Note_on_c, 0, 74, 70
2, 32880, Note_off_c, 0, 74, 0
2, 32880, Note_on_c, 0, 72, 76
2, 33120, Note_off_c, 0, 72, 0
2, 33120, Note_on_c, 0, 69, 76
2, 33120, Note_on_c, 0, 45, 64
2, 33360, Note_off_c, 0, 45, 0
2, 33360, Note_on_c, 0, 52, 70
2, 33600, Note_off_c, 0, 52, 0
2, 33600, Note_off_c, 0, 69, 0
2, 33600, Note_on_c, 0, 57, 76
2, 33840, Note_off_c, 0, 57, 0
2, 33840, Note_on_c, 0, 60, 76
2, 34080, Note_off_c, 0, 60, 0
2, 34080, Note_on_c, 0, 64, 76
2, 34320, Note_off_c, 0, 64, 0
2, 34320, Note_on_c, 0, 69, 76
2, 34560, Note_off_c, 0, 69, 0
2, 34560, Note_on_c, 0, 71, 76
2, 34560, Note_on_c, 0, 40, 64
2, 34800, Note_off_c, 0, 40, 0
2, 34800, Note_on_c, 0, 52, 70
2, 35040, Note_off_c, 0, 52, 0
2, 35040, Note_off_c, 0, 71, 0
2, 35040, Note_on_c, 0, 56, 76
2, 35280, Note_off_c, 0, 56, 0
2, 35280, Note_on_c, 0, 64, 76
2, 35520, Note_off_c, 0, 64, 0
2, 35520, Note_on_c, 0, 68, 76
2, 35760, Note_off_c, 0, 68, 0
2, 35760, Note_on_c, 0, 71, 76
2, 36000, Note_off_c, 0, 71, 0
2, 36000, Note_on_c, 0, 72, 76
2, 36000, Note_on_c, 0, 45, 70
2, 36240, Note_off_c, 0, 45, 0
2, 36240, Note_on_c, 0, 52, 76
2, 36480, Note_off_c, 0, 52, 0
2, 36480, Note_off_c, 0, 72, 0
2, 36480, Note_on_c, 0, 57, 76
2, 36720, Note_off_c, 0, 57, 0
2, 36720, Note_on_c, 0, 64, 76
2, 36960, Note_off_c, 0, 64, 0
2, 36960, Note_on_c, 0, 76, 76
2, 37200, Note_off_c, 0, 76, 0
2, 37200, Note_on_c, 0, 75, 76
2, 37440, Note_off_c, 0, 75, 0
2, 37440, Note_on_c, 0, 76, 76
2, 37680, Note_off_c, 0, 76, 0
2, 37680, Note_on_c, 0, 75, 70
2, 37920, Note_off_c, 0, 75, 0
2, 37920, Note_on_c, 0, 76, 76
2, 38160, Note_off_c, 0, 76, 0
2, 38160, Note_on_c, 0, 71, 70
2, 38400, Note_off_c, 0, 71, 0
2, 38400, Note_on_c, 0, 74, 76
2, 38640, Note_off_c, 0, 74, 0
2, 38640, Note_on_c, 0, 72, 76
2, 38880, Note_off_c, 0, 72, 0
2, 38880, Note_on_c, 0, 69, 83
2, 38880, Note_on_c, 0, 45, 64
2, 39120, Note_off_c, 0, 45, 0
2, 39120, Note_on_c, 0, 52, 76
2, 39360, Note_off_c, 0, 52, 0
2, 39360, Note_off_c, 0, 69, 0
2, 39360, Note_on_c, 0, 57, 76
2, 39600, Note_off_c, 0, 57, 0
2, 39600, Note_on_c, 0, 60, 76
2, 39840, Note_off_c, 0, 60, 0
2, 39840, Note_on_c, 0, 64, 76
2, 40080, Note_off_c, 0, 64, 0
2, 40080, Note_on_c, 0, 69, 76
2, 40320, Note_off_c, 0, 69, 0
2, 40320, Note_on_c, 0, 71, 76
2, 40320, Note_on_c, 0, 40, 64
2, 40560, Note_off_c, 0, 40, 0
2, 40560, Note_on_c, 0, 52, 70
2, 40800, Note_off_c, 0, 52, 0
2, 40800, Note_off_c, 0, 71, 0
2, 40800, Note_on_c, 0, 56, 76
2, 41040, Note_off_c, 0, 56, 0
2, 41040, Note_on_c, 0, 64, 76
2, 41280, Note_off_c, 0, 64, 0
2, 41280, Note_on_c, 0, 72, 76
2, 41520, Note_off_c, 0, 72, 0
2, 41520, Note_on_c, 0, 71, 76
2, 41760, Note_off_c, 0, 71, 0
2, 41760, Note_on_c, 0, 69, 76
2, 41760, Note_on_c, 0, 45, 70
2, 42000, Note_off_c, 0, 45, 0
2, 42000, Note_on_c, 0, 52, 76
2, 42240, Note_off_c, 0, 52, 0
2, 42240, Note_off_c, 0, 69, 0
2, 42240, Note_on_c, 0, 57, 76
2, 42480, Note_off_c, 0, 57, 0
2, 42480, Note_on_c, 0, 71, 76
2, 42720, Note_off_c, 0, 71, 0
2, 42720, Note_on_c, 0, 72, 76
2, 42960, Note_off_c, 0, 72, 0
2, 42960, Note_on_c, 0, 74, 76
2, 43200, Note_off_c, 0, 74, 0
2, 43200, Note_on_c, 0, 76, 76
2, 43200, Sequencer_specific, 4, 5, 15, 15, 17
2, 43200, Note_on_c, 0, 48, 64
2, 43440, Note_off_c, 0, 48, 0
2, 43440, Note_on_c, 0, 55, 70
2, 43680, Note_off_c, 0, 55, 0
2, 43680, Note_on_c, 0, 60, 76
2, 43680, Sequencer_specific, 4, 5, 15, 15, 8
2, 43920, Note_off_c, 0, 76, 0
2, 43920, Note_off_c, 0, 60, 0
2, 43920, Note_on_c, 0, 67, 76
2, 44160, Note_off_c, 0, 67, 0
2, 44160, Note_on_c, 0, 77, 76
2, 44400, Note_off_c, 0, 77, 0
2, 44400, Note_on_c, 0, 76, 76
2, 44640, Note_off_c, 0, 76, 0
2, 44640, Note_on_c, 0, 74, 76
2, 44640, Sequencer_specific, 4, 5, 15, 15, 1
2, 44640, Note_on_c, 0, 43, 64
2, 44880, Note_off_c, 0, 43, 0
2, 44880, Note_on_c, 0, 55, 70
2, 45120, Note_off_c, 0, 55, 0
2, 45120, Note_on_c, 0, 59, 76
2, 45360, Note_off_c, 0, 74, 0
2, 45360, Note_off_c, 0, 59, 0
2, 45360, Note_on_c, 0, 65, 76
2, 45600, Note_off_c, 0, 65, 0
2, 45600, Note_on_c, 0, 76, 76
2, 45840, Note_off_c, 0, 76, 0
2, 45840, Note_on_c, 0, 74, 76
2, 46080, Note_off_c, 0, 74, 0
2, 46080, Note_on_c, 0, 72, 83
2, 46080, Note_on_c, 0, 45, 70
2, 46320, Note_off_c, 0, 45, 0
2, 46320, Note_on_c, 0, 52, 70
2, 46560, Note_off_c, 0, 52, 0
2, 46560, Note_on_c, 0, 57, 76
2, 46800, Note_off_c, 0, 72, 0
2, 46800, Note_off_c, 0, 57, 0
2, 46800, Note_on_c, 0, 64, 76
2, 47040, Note_off_c, 0, 64, 0
2, 47040, Note_on_c, 0, 74, 76
2, 47280, Note_off_c, 0, 74, 0
2, 47280, Note_on_c, 0, 72, 76
2, 47520, Note_off_c, 0, 72, 0
2, 47520, Note_on_c, 0, 71, 83
2, 47520, Note_on_c, 0, 40, 64
2, 47760, Note_off_c, 0, 40, 0
2, 47760, Note_on_c, 0, 52, 70
2, 48000, Note_off_c, 0, 52, 0
2, 48000, Note_off_c, 0, 71, 0
2, 48000, Note_on_c, 0, 64, 76
2, 48000, Sequencer_specific, 4, 5, 15, 15, 8
2, 48240, Note_off_c, 0, 64, 0
2, 48240, Note_on_c, 0, 64, 76
2, 48480, Note_off_c, 0, 64, 0
2, 48480, Note_on_c, 0, 76, 83
2, 48720, Note_off_c, 0, 76, 0
2, 48720, Note_on_c, 0, 64, 76
2, 48960, Note_off_c, 0, 64, 0
2, 48960, Note_on_c, 0, 76, 76
2, 49200, Note_off_c, 0, 76, 0
2, 49200, Note_on_c, 0, 76, 70
2, 49440, Note_off_c, 0, 76, 0
2, 49440, Note_on_c, 0, 88, 64
2, 49680, Note_off_c, 0, 88, 0
2, 49680, Note_on_c, 0, 75, 76
2, 49920, Note_off_c, 0, 75, 0
2, 49920, Note_on_c, 0, 76, 70
2, 50160, Note_off_c, 0, 76, 0
2, 50160, Note_on_c, 0, 75, 76
2, 50400, Note_off_c, 0, 75, 0
2, 50400, Note_on_c, 0, 76, 76
2, 50640, Note_off_c, 0, 76, 0
2, 50640, Note_on_c, 0, 75, 76
2, 50880, Note_off_c, 0, 75, 0
2, 50880, Note_on_c, 0, 76, 76
2, 51120, Note_off_c, 0, 76, 0
2, 51120, Note_on_c, 0, 71, 76
2, 51360, Note_off_c, 0, 71, 0
2, 51360, Note_on_c, 0, 74, 76
2, 51600, Note_off_c, 0, 74, 0
2, 51600, Note_on_c, 0, 72, 76
2, 51840, Note_off_c, 0, 72, 0
2, 51840, Note_on_c, 0, 69, 83
2, 51840, Note_on_c, 0, 45, 64
2, 52080, Note_off_c, 0, 45, 0
2, 52080, Note_on_c, 0, 52, 70
2, 52320, Note_off_c, 0, 52, 0
2, 52320, Note_off_c, 0, 69, 0
2, 52320, Note_on_c, 0, 57, 76
2, 52560, Note_off_c, 0, 57, 0
2, 52560, Note_on_c, 0, 60, 70
2, 52800, Note_off_c, 0, 60, 0
2, 52800, Note_on_c, 0, 64, 76
2, 53040, Note_off_c, 0, 64, 0
2, 53040, Note_on_c, 0, 69, 76
2, 53280, Note_off_c, 0, 69, 0
2, 53280, Note_on_c, 0, 71, 76
2, 53280, Note_on_c, 0, 40, 64
2, 53520, Note_off_c, 0, 40, 0
2, 53520, Note_on_c, 0, 52, 76
2, 53760, Note_off_c, 0, 52, 0
2, 53760, Note_off_c, 0, 71, 0
2, 53760, Note_on_c, 0, 56, 76
2, 54000, Note_off_c, 0, 56, 0
2, 54000, Note_on_c, 0, 64, 76
2, 54240, Note_off_c, 0, 64, 0
2, 54240, Note_on_c, 0, 68, 76
2, 54480, Note_off_c, 0, 68, 0
2, 54480, Note_on_c, 0, 71, 76
2, 54720, Note_off_c, 0, 71, 0
2, 54720, Note_on_c, 0, 72, 76
2, 54720, Note_on_c, 0, 45, 76
2, 54960, Note_off_c, 0, 45, 0
2, 54960, Note_on_c, 0, 52, 76
2, 55200, Note_off_c, 0, 52, 0
2, 55200, Note_off_c, 0, 72, 0
2, 55200, Note_on_c, 0, 57, 76
2, 55440, Note_off_c, 0, 57, 0
2, 55440, Note_on_c, 0, 64, 76
2, 55680, Note_off_c, 0, 64, 0
2, 55680, Note_on_c, 0, 76, 76
2, 55920, Note_off_c, 0, 76, 0
2, 55920, Note_on_c, 0, 75, 76
2, 56160, Note_off_c, 0, 75, 0
2, 56160, Note_on_c, 0, 76, 76
2, 56400, Note_off_c, 0, 76, 0
2, 56400, Note_on_c, 0, 75, 70
2, 56640, Note_off_c, 0, 75, 0
2, 56640, Note_on_c, 0, 76, 76
2, 56880, Note_off_c, 0, 76, 0
2, 56880, Note_on_c, 0, 71, 76
2, 57120, Note_off_c, 0, 71, 0
2, 57120, Note_on_c, 0, 74, 76
2, 57360, Note_off_c, 0, 74, 0
2, 57360, Note_on_c, 0, 72, 70
2, 57600, Note_off_c, 0, 72, 0
2, 57600, Note_on_c, 0, 69, 76
2, 57600, Note_on_c, 0, 45, 64
2, 57840, Note_off_c, 0, 45, 0
2, 57840, Note_on_c, 0, 52, 70
2, 58080, Note_off_c, 0, 52, 0
2, 58080, Note_off_c, 0, 69, 0
2, 58080, Note_on_c, 0, 57, 76
2, 58320, Note_off_c, 0, 57, 0
2, 58320, Note_on_c, 0, 60, 76
2, 58560, Note_off_c, 0, 60, 0
2, 58560, Note_on_c, 0, 64, 76
2, 58800, Note_off_c, 0, 64, 0
2, 58800, Note_on_c, 0, 69, 76
2, 59040, Note_off_c, 0, 69, 0
2, 59040, Note_on_c, 0, 71, 76
2, 59040, Note_on_c, 0, 40, 64
2, 59280, Note_off_c, 0, 40, 0
2, 59280, Note_on_c, 0, 52, 64
2, 59520, Note_off_c, 0, 52, 0
2, 59520, Note_off_c, 0, 71, 0
2, 59520, Note_on_c, 0, 56, 70
2, 59760, Note_off_c, 0, 56, 0
2, 59760, Note_on_c, 0, 64, 76
2, 60000, Note_off_c, 0, 64, 0
2, 60000, Note_on_c, 0, 72, 76
2, 60240, Note_off_c, 0, 72, 0
2, 60240, Note_on_c, 0, 71, 76
2, 60480, Note_off_c, 0, 71, 0
2, 60480, Note_on_c, 0, 69, 89
2, 60480, Note_on_c, 0, 45, 70
2, 60720, Note_off_c, 0, 45, 0
2, 60720, Note_on_c, 0, 52, 76
2, 60960, Note_off_c, 0, 52, 0
2, 60960, Note_off_c, 0, 69, 0
2, 60960, Note_on_c, 0, 57, 83
2, 61200, Note_off_c, 0, 57, 0
2, 61200, Note_on_c, 0, 58, 51
2, 61200, Sequencer_specific, 3, 5, 15, 14
2, 61200, Note_on_c, 0, 60, 51
2, 61200, Sequencer_specific, 3, 5, 15, 14
2, 61200, Note_on_c, 0, 64, 51
2, 61200, Sequencer_specific, 3, 5, 15, 14
2, 61200, Note_on_c, 0, 72, 51
2, 61200, Sequencer_specific, 3, 5, 15, 14
2, 61320, Note_off_c, 0, 72, 0
2, 61320, Note_off_c, 0, 64, 0
2, 61320, Note_off_c, 0, 58, 0
2, 61320, Note_off_c, 0, 60, 0
2, 61440, Note_on_c, 0, 60, 64
2, 61440, Sequencer_specific, 3, 5, 15, 14
2, 61440, Note_on_c, 0, 57, 64
2, 61440, Sequencer_specific, 3, 5, 15, 14
2, 61440, Note_on_c, 0, 65, 64
2, 61440, Sequencer_specific, 3, 5, 15, 14
2, 61440, Note_on_c, 0, 72, 64
2, 61440, Sequencer_specific, 3, 5, 15, 14
2, 61560, Note_off_c, 0, 72, 0
2, 61560, Note_off_c, 0, 65, 0
2, 61560, Note_off_c, 0, 57, 0
2, 61560, Note_off_c, 0, 60, 0
2, 61680, Note_on_c, 0, 58, 78
2, 61680, Sequencer_specific, 3, 5, 15, 14
2, 61680, Note_on_c, 0, 60, 78
2, 61680, Sequencer_specific, 3, 5, 15, 14
2, 61680, Note_on_c, 0, 55, 78
2, 61680, Sequencer_specific, 3, 5, 15, 14
2, 61680, Note_on_c, 0, 64, 70
2, 61680, Sequencer_specific, 3, 5, 15, 14
2, 61680, Note_on_c, 0, 72, 83
2, 61680, Sequencer_specific, 3, 5, 15, 14
2, 61680, Note_on_c, 0, 67, 70
2, 61680, Sequencer_specific, 3, 5, 15, 14
2, 61800, Note_off_c, 0, 67, 0
2, 61800, Note_off_c, 0, 72, 0
2, 61800, Note_off_c, 0, 64, 0
2, 61800, Note_off_c, 0, 55, 0
2, 61800, Note_off_c, 0, 58, 0
2, 61800, Note_off_c, 0, 60, 0
2, 61920, Note_on_c, 0, 72, 95
2, 61920, Note_on_c, 0, 53, 76
2, 62160, Note_off_c, 0, 53, 0
2, 62160, Note_on_c, 0, 57, 76
2, 62400, Note_off_c, 0, 57, 0
2, 62400, Note_on_c, 0, 60, 76
2, 62400, Sequencer_specific, 4, 5, 15, 15, 8
2, 62640, Note_off_c, 0, 60, 0
2, 62640, Note_on_c, 0, 57, 76
2, 62880, Note_off_c, 0, 57, 0
2, 62880, Note_off_c, 0, 72, 0
2, 62880, Note_on_c, 0, 60, 76
2, 62880, Sequencer_specific, 4, 5, 15, 15, 8
2, 62880, Note_on_c, 0, 77, 76
2, 63120, Note_off_c, 0, 60, 0
2, 63120, Note_on_c, 0, 57, 76
2, 63240, Note_off_c, 0, 77, 0
2, 63240, Note_on_c, 0, 76, 76
2, 63360, Note_off_c, 0, 76, 0
2, 63360, Note_off_c, 0, 57, 0
2, 63360, Note_on_c, 0, 76, 76
2, 63360, Note_on_c, 0, 53, 76
2, 63600, Note_off_c, 0, 53, 0
2, 63600, Note_on_c, 0, 58, 76
2, 63840, Note_off_c, 0, 58, 0
2, 63840, Note_off_c, 0, 76, 0
2, 63840, Note_on_c, 0, 74, 76
2, 63840, Note_on_c, 0, 62, 76
2, 63840, Sequencer_specific, 4, 5, 15, 15, 8
2, 64080, Note_off_c, 0, 62, 0
2, 64080, Note_on_c, 0, 58, 76
2, 64320, Note_off_c, 0, 58, 0
2, 64320, Note_off_c, 0, 74, 0
2, 64320, Note_on_c, 0, 62, 76
2, 64320, Sequencer_specific, 4, 5, 15, 15, 8
2, 64320, Note_on_c, 0, 82, 76
2, 64560, Note_off_c, 0, 62, 0
2, 64560, Note_on_c, 0, 58, 76
2, 64680, Note_off_c, 0, 82, 0
2, 64680, Note_on_c, 0, 81, 76
2, 64800, Note_off_c, 0, 81, 0
2, 64800, Note_off_c, 0, 58, 0
2, 64800, Note_on_c, 0, 81, 76
2, 64800, Note_on_c, 0, 53, 76
2, 65040, Note_off_c, 0, 53, 0
2, 65040, Note_off_c, 0, 81, 0
2, 65040, Note_on_c, 0, 79, 76
2, 65040, Note_on_c, 0, 64, 76
2, 65040, Sequencer_specific, 4, 5, 15, 15, 8
2, 65280, Note_off_c, 0, 64, 0
2, 65280, Note_off_c, 0, 79, 0
2, 65280, Note_on_c, 0, 77, 76
2, 65280, Note_on_c, 0, 58, 64
2, 65280, Note_on_c, 0, 55, 70
2, 65280, Note_on_c, 0, 53, 76
2, 65520, Note_off_c, 0, 53, 0
2, 65520, Note_off_c, 0, 55, 0
2, 65520, Note_off_c, 0, 58, 0
2, 65520, Note_off_c, 0, 77, 0
2, 65520, Note_on_c, 0, 76, 76
2, 65520, Note_on_c, 0, 64, 76
2, 65520, Sequencer_specific, 4, 5, 15, 15, 8
2, 65760, Note_off_c, 0, 64, 0
2, 65760, Note_off_c, 0, 76, 0
2, 65760, Note_on_c, 0, 74, 76
2, 65760, Note_on_c, 0, 58, 64
2, 65760, Note_on_c, 0, 55, 70
2, 65760, Note_on_c, 0, 53, 76
2, 66000, Note_off_c, 0, 53, 0
2, 66000, Note_off_c, 0, 55, 0
2, 66000, Note_off_c, 0, 58, 0
2, 66000, Note_off_c, 0, 74, 0
2, 66000, Note_on_c, 0, 72, 76
2, 66000, Note_on_c, 0, 64, 76
2, 66000, Sequencer_specific, 4, 5, 15, 15, 8
2, 66240, Note_off_c, 0, 64, 0
2, 66240, Note_off_c, 0, 72, 0
2, 66240, Note_on_c, 0, 70, 76
2, 66240, Note_on_c, 0, 53, 78
2, 66480, Note_off_c, 0, 53, 0
2, 66480, Note_on_c, 0, 57, 78
2, 66720, Note_off_c, 0, 57, 0
2, 66720, Note_off_c, 0, 70, 0
2, 66720, Note_on_c, 0, 69, 76
2, 66720, Note_on_c, 0, 60, 78
2, 66720, Sequencer_specific, 4, 5, 15, 15, 8
2, 66960, Note_off_c, 0, 60, 0
2, 66960, Note_on_c, 0, 57, 78
2, 67200, Note_off_c, 0, 57, 0
2, 67200, Note_off_c, 0, 69, 0
2, 67200, Note_on_c, 0, 69, 83
2, 67200, Note_on_c, 0, 60, 78
2, 67200, Sequencer_specific, 4, 5, 15, 15, 8
2, 67320, Note_off_c, 0, 69, 0
2, 67320, Note_on_c, 0, 67, 76
2, 67440, Note_off_c, 0, 60, 0
2, 67440, Note_off_c, 0, 67, 0
2, 67440, Note_on_c, 0, 69, 83
2, 67440, Note_on_c, 0, 57, 78
2, 67560, Note_off_c, 0, 69, 0
2, 67560, Note_on_c, 0, 70, 89
2, 67680, Note_off_c, 0, 57, 0
2, 67680, Note_off_c, 0, 70, 0
2, 67680, Note_on_c, 0, 72, 95
2, 67680, Note_on_c, 0, 53, 76
2, 67920, Note_off_c, 0, 53, 0
2, 67920, Note_on_c, 0, 57, 76
2, 68160, Note_off_c, 0, 57, 0
2, 68160, Note_on_c, 0, 60, 76
2, 68160, Sequencer_specific, 4, 5, 15, 15, 8
2, 68400, Note_off_c, 0, 60, 0
2, 68400, Note_on_c, 0, 57, 76
2, 68640, Note_off_c, 0, 57, 0
2, 68640, Note_off_c, 0, 72, 0
2, 68640, Note_on_c, 0, 74, 90
2, 68640, Note_on_c, 0, 60, 76
2, 68880, Note_off_c, 0, 60, 0
2, 68880, Note_off_c, 0, 74, 0
2, 68880, Note_on_c, 0, 75, 90
2, 68880, Note_on_c, 0, 57, 76
2, 69120, Note_off_c, 0, 57, 0
2, 69120, Note_off_c, 0, 75, 0
2, 69120, Note_on_c, 0, 76, 78
2, 69120, Note_on_c, 0, 52, 76
2, 69360, Note_off_c, 0, 52, 0
2, 69360, Note_on_c, 0, 57, 76
2, 69600, Note_off_c, 0, 57, 0
2, 69600, Note_on_c, 0, 60, 76
2, 69600, Sequencer_specific, 4, 5, 15, 15, 8
2, 69840, Note_off_c, 0, 60, 0
2, 69840, Note_off_c, 0, 76, 0
2, 69840, Note_on_c, 0, 76, 90
2, 69840, Note_on_c, 0, 57, 76
2, 70080, Note_off_c, 0, 57, 0
2, 70080, Note_off_c, 0, 76, 0
2, 70080, Note_on_c, 0, 77, 90
2, 70080, Note_on_c, 0, 62, 76
2, 70080, Sequencer_specific, 4, 5, 15, 15, 8
2, 70080, Note_on_c, 0, 50, 76
2, 70320, Note_off_c, 0, 50, 0
2, 70320, Note_off_c, 0, 62, 0
2, 70320, Note_off_c, 0, 77, 0
2, 70320, Note_on_c, 0, 69, 90
2, 70320, Note_on_c, 0, 53, 76
2, 70560, Note_off_c, 0, 53, 0
2, 70560, Note_off_c, 0, 69, 0
2, 70560, Note_on_c, 0, 72, 90
2, 70560, Note_on_c, 0, 55, 76
2, 70800, Note_off_c, 0, 55, 0
2, 70800, Note_on_c, 0, 64, 76
2, 70800, Sequencer_specific, 4, 5, 15, 15, 8
2, 71040, Note_off_c, 0, 64, 0
2, 71040, Note_on_c, 0, 55, 76
2, 71280, Note_off_c, 0, 55, 0
2, 71280, Note_on_c, 0, 64, 76
2, 71280, Sequencer_specific, 4, 5, 15, 15, 8
2, 71520, Note_off_c, 0, 64, 0
2, 71520, Note_off_c, 0, 72, 0
2, 71520, Note_on_c, 0, 74, 90
2, 71520, Note_on_c, 0, 55, 76
2, 71760, Note_off_c, 0, 55, 0
2, 71760, Note_on_c, 0, 65, 76
2, 71760, Sequencer_specific, 4, 5, 15, 15, 8
2, 71880, Note_off_c, 0, 74, 0
2, 71880, Note_on_c, 0, 71, 90
2, 72000, Note_off_c, 0, 65, 0
2, 72000, Note_off_c, 0, 71, 0
2, 72000, Note_on_c, 0, 72, 90
2, 72000, Note_on_c, 0, 60, 76
2, 72000, Note_on_c, 0, 64, 76
2, 72000, Sequencer_specific, 4, 5, 15, 15, 8
2, 72120, Note_off_c, 0, 72, 0
2, 72120, Note_on_c, 0, 79, 90
2, 72240, Note_off_c, 0, 79, 0
2, 72240, Note_on_c, 0, 67, 90
2, 72360, Note_off_c, 0, 67, 0
2, 72360, Note_on_c, 0, 79, 90
2, 72480, Note_off_c, 0, 64, 0
2, 72480, Note_off_c, 0, 60, 0
2, 72480, Note_off_c, 0, 79, 0
2, 72480, Note_on_c, 0, 69, 90
2, 72600, Note_off_c, 0, 69, 0
2, 72600, Note_on_c, 0, 79, 90
2, 72720, Note_off_c, 0, 79, 0
2, 72720, Note_on_c, 0, 71, 90
2, 72720, Note_on_c, 0, 67, 76
2, 72720, Sequencer_specific, 4, 5, 15, 15, 12
2, 72720, Note_on_c, 0, 65, 76
2, 72720, Sequencer_specific, 4, 5, 15, 15, 12
2, 72840, Note_off_c, 0, 65, 0
2, 72840, Note_off_c, 0, 67, 0
2, 72840, Note_off_c, 0, 71, 0
2, 72840, Note_on_c, 0, 79, 90
2, 72960, Note_off_c, 0, 79, 0
2, 72960, Note_on_c, 0, 72, 90
2, 72960, Note_on_c, 0, 67, 76
2, 72960, Sequencer_specific, 4, 5, 15, 15, 12
2, 72960, Note_on_c, 0, 64, 76
2, 72960, Sequencer_specific, 4, 5, 15, 15, 12
2, 73080, Note_off_c, 0, 64, 0
2, 73080, Note_off_c, 0, 67, 0
2, 73080, Note_off_c, 0, 72, 0
2, 73080, Note_on_c, 0, 79, 90
2, 73200, Note_off_c, 0, 79, 0
2, 73200, Note_on_c, 0, 74, 90
2, 73200, Note_on_c, 0, 67, 76
2, 73200, Sequencer_specific, 4, 5, 15, 15, 12
2, 73200, Note_on_c, 0, 65, 76
2, 73200, Sequencer_specific, 4, 5, 15, 15, 12
2, 73200, Note_on_c, 0, 62, 76
2, 73200, Sequencer_specific, 4, 5, 15, 15, 12
2, 73320, Note_off_c, 0, 62, 0
2, 73320, Note_off_c, 0, 65, 0
2, 73320, Note_off_c, 0, 67, 0
2, 73320, Note_off_c, 0, 74, 0
2, 73320, Note_on_c, 0, 79, 90
2, 73440, Note_off_c, 0, 79, 0
2, 73440, Note_on_c, 0, 76, 90
2, 73440, Note_on_c, 0, 60, 76
2, 73440, Sequencer_specific, 3, 5, 15, 14
2, 73440, Note_on_c, 0, 64, 76
2, 73440, Sequencer_specific, 4, 5, 15, 15, 12
2, 73440, Note_on_c, 0, 67, 76
2, 73440, Sequencer_specific, 4, 5, 15, 15, 12
2, 73560, Note_off_c, 0, 76, 0
2, 73560, Note_on_c, 0, 79, 90
2, 73680, Note_off_c, 0, 67, 0
2, 73680, Note_off_c, 0, 64, 0
2, 73680, Note_off_c, 0, 60, 0
2, 73680, Note_off_c, 0, 79, 0
2, 73680, Note_on_c, 0, 84, 90
2, 73800, Note_off_c, 0, 84, 0
2, 73800, Note_on_c, 0, 83, 90
2, 73920, Note_off_c, 0, 83, 0
2, 73920, Note_on_c, 0, 81, 90
2, 73920, Note_on_c, 0, 53, 76
2, 73920, Sequencer_specific, 3, 5, 15, 14
2, 73920, Note_on_c, 0, 57, 76
2, 73920, Sequencer_specific, 3, 5, 15, 14
2, 74040, Note_off_c, 0, 81, 0
2, 74040, Note_on_c, 0, 79, 90
2, 74160, Note_off_c, 0, 57, 0
2, 74160, Note_off_c, 0, 53, 0
2, 74160, Note_off_c, 0, 79, 0
2, 74160, Note_on_c, 0, 77, 90
2, 74280, Note_off_c, 0, 77, 0
2, 74280, Note_on_c, 0, 74, 90
2, 74400, Note_off_c, 0, 74, 0
2, 74400, Note_on_c, 0, 72, 90
2, 74400, Note_on_c, 0, 55, 76
2, 74400, Sequencer_specific, 3, 5, 15, 14
2, 74400, Note_on_c, 0, 59, 76
2, 74400, Sequencer_specific, 3, 5, 15, 14
2, 74520, Note_off_c, 0, 72, 0
2, 74520, Note_on_c, 0, 79, 90
2, 74640, Note_off_c, 0, 59, 0
2, 74640, Note_off_c, 0, 55, 0
2, 74640, Note_off_c, 0, 79, 0
2, 74640, Note_on_c, 0, 77, 90
2, 74760, Note_off_c, 0, 77, 0
2, 74760, Note_on_c, 0, 74, 90
2, 74880, Note_off_c, 0, 74, 0
2, 74880, Note_on_c, 0, 72, 90
2, 74880, Note_on_c, 0, 60, 76
2, 74880, Sequencer_specific, 4, 5, 15, 15, 12
2, 75000, Note_off_c, 0, 72, 0
2, 75000, Note_on_c, 0, 79, 90
2, 75120, Note_off_c, 0, 60, 0
2, 75120, Note_off_c, 0, 79, 0
2, 75120, Note_on_c, 0, 67, 90
2, 75240, Note_off_c, 0, 67, 0
2, 75240, Note_on_c, 0, 79, 90
2, 75360, Note_off_c, 0, 79, 0
2, 75360, Note_on_c, 0, 69, 90
2, 75480, Note_off_c, 0, 69, 0
2, 75480, Note_on_c, 0, 79, 90
2, 75600, Note_off_c, 0, 79, 0
2, 75600, Note_on_c, 0, 71, 90
2, 75600, Note_on_c, 0, 67, 76
2, 75600, Sequencer_specific, 4, 5, 15, 15, 12
2, 75600, Note_on_c, 0, 65, 76
2, 75600, Sequencer_specific, 4, 5, 15, 15, 12
2, 75720, Note_off_c, 0, 65, 0
2, 75720, Note_off_c, 0, 67, 0
2, 75720, Note_off_c, 0, 71, 0
2, 75720, Note_on_c, 0, 79, 90
2, 75840, Note_off_c, 0, 79, 0
2, 75840, Note_on_c, 0, 72, 90
2, 75840, Note_on_c, 0, 67, 76
2, 75840, Sequencer_specific, 4, 5, 15, 15, 12
2, 75840, Note_on_c, 0, 64, 76
2, 75840, Sequencer_specific, 4, 5, 15, 15, 12
2, 75960, Note_off_c, 0, 64, 0
2, 75960, Note_off_c, 0, 67, 0
2, 75960, Note_off_c, 0, 72, 0
2, 75960, Note_on_c, 0, 79, 90
2, 76080, Note_off_c, 0, 79, 0
2, 76080, Note_on_c, 0, 74, 90
2, 76080, Note_on_c, 0, 67, 76
2, 76080, Sequencer_specific, 4, 5, 15, 15, 12
2, 76080, Note_on_c, 0, 65, 76
2, 76080, Sequencer_specific, 4, 5, 15, 15, 12
2, 76080, Note_on_c, 0, 62, 76
2, 76080, Sequencer_specific, 4, 5, 15, 15, 12
2, 76200, Note_off_c, 0, 62, 0
2, 76200, Note_off_c, 0, 65, 0
2, 76200, Note_off_c, 0, 67, 0
2, 76200, Note_off_c, 0, 74, 0
2, 76200, Note_on_c, 0, 79, 90
2, 76320, Note_off_c, 0, 79, 0
2, 76320, Note_on_c, 0, 76, 90
2, 76320, Note_on_c, 0, 60, 76
2, 76320, Sequencer_specific, 3, 5, 15, 14
2, 76320, Note_on_c, 0, 64, 76
2, 76320, Sequencer_specific, 4, 5, 15, 15, 12
2, 76320, Note_on_c, 0, 67, 76
2, 76320, Sequencer_specific, 4, 5, 15, 15, 12
2, 76440, Note_off_c, 0, 76, 0
2, 76440, Note_on_c, 0, 79, 90
2, 76560, Note_off_c, 0, 67, 0
2, 76560, Note_off_c, 0, 64, 0
2, 76560, Note_off_c, 0, 60, 0
2, 76560, Note_off_c, 0, 79, 0
2, 76560, Note_on_c, 0, 84, 90
2, 76680, Note_off_c, 0, 84, 0
2, 76680, Note_on_c, 0, 83, 90
2, 76800, Note_off_c, 0, 83, 0
2, 76800, Note_on_c, 0, 81, 90
2, 76800, Note_on_c, 0, 53, 76
2, 76800, Sequencer_specific, 3, 5, 15, 14
2, 76800, Note_on_c, 0, 57, 76
2, 76800, Sequencer_specific, 3, 5, 15, 14
2, 76920, Note_off_c, 0, 81, 0
2, 76920, Note_on_c, 0, 79, 90
2, 77040, Note_off_c, 0, 57, 0
2, 77040, Note_off_c, 0, 53, 0
2, 77040, Note_off_c, 0, 79, 0
2, 77040, Note_on_c, 0, 77, 90
2, 77160, Note_off_c, 0, 77, 0
2, 77160, Note_on_c, 0, 76, 90
2, 77280, Note_off_c, 0, 76, 0
2, 77280, Note_on_c, 0, 74, 90
2, 77280, Note_on_c, 0, 55, 76
2, 77280, Sequencer_specific, 3, 5, 15, 14
2, 77280, Note_on_c, 0, 59, 76
2, 77280, Sequencer_specific, 3, 5, 15, 14
2, 77400, Note_off_c, 0, 74, 0
2, 77400, Note_on_c, 0, 79, 90
2, 77520, Note_off_c, 0, 59, 0
2, 77520, Note_off_c, 0, 55, 0
2, 77520, Note_off_c, 0, 79, 0
2, 77520, Note_on_c, 0, 77, 90
2, 77640, Note_off_c, 0, 77, 0
2, 77640, Note_on_c, 0, 74, 90
2, 77760, Note_off_c, 0, 74, 0
2, 77760, Note_on_c, 0, 76, 90
2, 77760, Note_on_c, 0, 56, 76
2, 77760, Sequencer_specific, 3, 5, 15, 14
2, 77760, Note_on_c, 0, 59, 76
2, 77760, Sequencer_specific, 3, 5, 15, 14
2, 77880, Note_off_c, 0, 76, 0
2, 77880, Note_on_c, 0, 77, 90
2, 78000, Note_off_c, 0, 59, 0
2, 78000, Note_off_c, 0, 56, 0
2, 78000, Note_off_c, 0, 77, 0
2, 78000, Note_on_c, 0, 76, 90
2, 78120, Note_off_c, 0, 76, 0
2, 78120, Note_on_c, 0, 75, 90
2, 78240, Note_off_c, 0, 75, 0
2, 78240, Note_on_c, 0, 76, 90
2, 78360, Note_off_c, 0, 76, 0
2, 78360, Note_on_c, 0, 71, 90
2, 78480, Note_off_c, 0, 71, 0
2, 78480, Note_on_c, 0, 76, 90
2, 78600, Note_off_c, 0, 76, 0
2, 78600, Note_on_c, 0, 75, 90
2, 78720, Note_off_c, 0, 75, 0
2, 78720, Note_on_c, 0, 76, 90
2, 78840, Note_off_c, 0, 76, 0
2, 78840, Note_on_c, 0, 71, 90
2, 78960, Note_off_c, 0, 71, 0
2, 78960, Note_on_c, 0, 76, 90
2, 79080, Note_off_c, 0, 76, 0
2, 79080, Note_on_c, 0, 75, 90
2, 79200, Note_off_c, 0, 75, 0
2, 79200, Note_on_c, 0, 76, 83
2, 79920, Note_off_c, 0, 76, 0
2, 79920, Note_on_c, 0, 71, 83
2, 80160, Note_off_c, 0, 71, 0
2, 80160, Note_on_c, 0, 76, 83
2, 80400, Note_off_c, 0, 76, 0
2, 80400, Note_on_c, 0, 75, 83
2, 80640, Note_off_c, 0, 75, 0
2, 80640, Note_on_c, 0, 76, 70
2, 81360, Note_off_c, 0, 76, 0
2, 81360, Note_on_c, 0, 71, 70
2, 81600, Note_off_c, 0, 71, 0
2, 81600, Note_on_c, 0, 76, 64
2, 81840, Note_off_c, 0, 76, 0
2, 81840, Note_on_c, 0, 75, 70
2, 82080, Note_off_c, 0, 75, 0
2, 82080, Note_on_c, 0, 76, 76
2, 82320, Note_off_c, 0, 76, 0
2, 82320, Note_on_c, 0, 75, 70
2, 82560, Note_off_c, 0, 75, 0
2, 82560, Note_on_c, 0, 76, 76
2, 82800, Note_off_c, 0, 76, 0
2, 82800, Note_on_c, 0, 75, 70
2, 83040, Note_off_c, 0, 75, 0
2, 83040, Note_on_c, 0, 76, 76
2, 83280, Note_off_c, 0, 76, 0
2, 83280, Note_on_c, 0, 75, 76
2, 83520, Note_off_c, 0, 75, 0
2, 83520, Note_on_c, 0, 76, 57
2, 83760, Note_off_c, 0, 76, 0
2, 83760, Note_on_c, 0, 75, 64
2, 84000, Note_off_c, 0, 75, 0
2, 84000, Note_on_c, 0, 76, 76
2, 84240, Note_off_c, 0, 76, 0
2, 84240, Note_on_c, 0, 71, 76
2, 84480, Note_off_c, 0, 71, 0
2, 84480, Note_on_c, 0, 74, 76
2, 84720, Note_off_c, 0, 74, 0
2, 84720, Note_on_c, 0, 72, 76
2, 84960, Note_off_c, 0, 72, 0
2, 84960, Note_on_c, 0, 69, 76
2, 84960, Sequencer_specific, 4, 5, 15, 15, 2
2, 84960, Note_on_c, 0, 45, 64
2, 85200, Note_off_c, 0, 45, 0
2, 85200, Note_on_c, 0, 52, 70
2, 85440, Note_off_c, 0, 52, 0
2, 85440, Note_on_c, 0, 57, 76
2, 85680, Note_off_c, 0, 69, 0
2, 85680, Note_off_c, 0, 57, 0
2, 85680, Note_on_c, 0, 60, 76
2, 85920, Note_off_c, 0, 60, 0
2, 85920, Note_on_c, 0, 64, 76
2, 86160, Note_off_c, 0, 64, 0
2, 86160, Note_on_c, 0, 69, 76
2, 86400, Note_off_c, 0, 69, 0
2, 86400, Note_on_c, 0, 71, 76
2, 86400, Sequencer_specific, 4, 5, 15, 15, 2
2, 86400, Note_on_c, 0, 40, 64
2, 86640, Note_off_c, 0, 40, 0
2, 86640, Note_on_c, 0, 52, 70
2, 86880, Note_off_c, 0, 52, 0
2, 86880, Note_on_c, 0, 56, 76
2, 87120, Note_off_c, 0, 71, 0
2, 87120, Note_off_c, 0, 56, 0
2, 87120, Note_on_c, 0, 64, 76
2, 87360, Note_off_c, 0, 64, 0
2, 87360, Note_on_c, 0, 68, 76
2, 87600, Note_off_c, 0, 68, 0
2, 87600, Note_on_c, 0, 71, 76
2, 87840, Note_off_c, 0, 71, 0
2, 87840, Note_on_c, 0, 72, 76
2, 87840, Note_on_c, 0, 45, 70
2, 88080, Note_off_c, 0, 45, 0
2, 88080, Note_on_c, 0, 52, 70
2, 88320, Note_off_c, 0, 52, 0
2, 88320, Note_on_c, 0, 57, 76
2, 88560, Note_off_c, 0, 72, 0
2, 88560, Note_off_c, 0, 57, 0
2, 88560, Note_on_c, 0, 64, 76
2, 88800, Note_off_c, 0, 64, 0
2, 88800, Note_on_c, 0, 76, 76
2, 89040, Note_off_c, 0, 76, 0
2, 89040, Note_on_c, 0, 75, 70
2, 89280, Note_off_c, 0, 75, 0
2, 89280, Note_on_c, 0, 76, 76
2, 89520, Note_off_c, 0, 76, 0
2, 89520, Note_on_c, 0, 75, 70
2, 89760, Note_off_c, 0, 75, 0
2, 89760, Note_on_c, 0, 76, 76
2, 90000, Note_off_c, 0, 76, 0
2, 90000, Note_on_c, 0, 71, 76
2, 90240, Note_off_c, 0, 71, 0
2, 90240, Note_on_c, 0, 74, 76
2, 90480, Note_off_c, 0, 74, 0
2, 90480, Note_on_c, 0, 72, 76
2, 90720, Note_off_c, 0, 72, 0
2, 90720, Note_on_c, 0, 69, 76
2, 90720, Sequencer_specific, 4, 5, 15, 15, 2
2, 90720, Note_on_c, 0, 45, 70
2, 90960, Note_off_c, 0, 45, 0
2, 90960, Note_on_c, 0, 52, 76
2, 91200, Note_off_c, 0, 52, 0
2, 91200, Note_on_c, 0, 57, 76
2, 91440, Note_off_c, 0, 69, 0
2, 91440, Note_off_c, 0, 57, 0
2, 91440, Note_on_c, 0, 60, 76
2, 91680, Note_off_c, 0, 60, 0
2, 91680, Note_on_c, 0, 64, 76
2, 91920, Note_off_c, 0, 64, 0
2, 91920, Note_on_c, 0, 69, 76
2, 92160, Note_off_c, 0, 69, 0
2, 92160, Note_on_c, 0, 71, 76
2, 92160, Sequencer_specific, 4, 5, 15, 15, 2
2, 92160, Note_on_c, 0, 40, 70
2, 92400, Note_off_c, 0, 40, 0
2, 92400, Note_on_c, 0, 52, 70
2, 92640, Note_off_c, 0, 52, 0
2, 92640, Note_on_c, 0, 56, 76
2, 92880, Note_off_c, 0, 71, 0
2, 92880, Note_off_c, 0, 56, 0
2, 92880, Note_on_c, 0, 64, 76
2, 93120, Note_off_c, 0, 64, 0
2, 93120, Note_on_c, 0, 72, 76
2, 93360, Note_off_c, 0, 72, 0
2, 93360, Note_on_c, 0, 71, 76
2, 93600, Note_off_c, 0, 71, 0
2, 93600, Note_on_c, 0, 69, 76
2, 93600, Note_on_c, 0, 45, 64
2, 93840, Note_off_c, 0, 45, 0
2, 93840, Note_on_c, 0, 52, 70
2, 94080, Note_off_c, 0, 52, 0
2, 94080, Note_on_c, 0, 57, 76
2, 94320, Note_off_c, 0, 69, 0
2, 94320, Note_off_c, 0, 57, 0
2, 94560, Note_on_c, 0, 76, 64
2, 94800, Note_off_c, 0, 76, 0
2, 94800, Note_on_c, 0, 75, 70
2, 95040, Note_off_c, 0, 75, 0
2, 95040, Note_on_c, 0, 76, 76
2, 95280, Note_off_c, 0, 76, 0
2, 95280, Note_on_c, 0, 75, 64
2, 95520, Note_off_c, 0, 75, 0
2, 95520, Note_on_c, 0, 76, 76
2, 95760, Note_off_c, 0, 76, 0
2, 95760, Note_on_c, 0, 71, 76
2, 96000, Note_off_c, 0, 71, 0
2, 96000, Note_on_c, 0, 74, 76
2, 96240, Note_off_c, 0, 74, 0
2, 96240, Note_on_c, 0, 72, 76
2, 96480, Note_off_c, 0, 72, 0
2, 96480, Note_on_c, 0, 69, 76
2, 96480, Note_on_c, 0, 45, 64
2, 96720, Note_off_c, 0, 45, 0
2, 96720, Note_on_c, 0, 52, 70
2, 96960, Note_off_c, 0, 52, 0
2, 96960, Note_on_c, 0, 57, 70
2, 97200, Note_off_c, 0, 57, 0
2, 97200, Note_off_c, 0, 69, 0
2, 97200, Note_on_c, 0, 60, 76
2, 97440, Note_off_c, 0, 60, 0
2, 97440, Note_on_c, 0, 64, 76
2, 97680, Note_off_c, 0, 64, 0
2, 97680, Note_on_c, 0, 69, 76
2, 97920, Note_off_c, 0, 69, 0
2, 97920, Note_on_c, 0, 71, 76
2, 97920, Note_on_c, 0, 40, 64
2, 98160, Note_off_c, 0, 40, 0
2, 98160, Note_on_c, 0, 52, 70
2, 98400, Note_off_c, 0, 52, 0
2, 98400, Note_on_c, 0, 56, 70
2, 98640, Note_off_c, 0, 56, 0
2, 98640, Note_off_c, 0, 71, 0
2, 98640, Note_on_c, 0, 64, 70
2, 98880, Note_off_c, 0, 64, 0
2, 98880, Note_on_c, 0, 68, 76
2, 99120, Note_off_c, 0, 68, 0
2, 99120, Note_on_c, 0, 71, 76
2, 99360, Note_off_c, 0, 71, 0
2, 99360, Note_on_c, 0, 72, 83
2, 99360, Note_on_c, 0, 45, 70
2, 99600, Note_off_c, 0, 45, 0
2, 99600, Note_on_c, 0, 52, 70
2, 99840, Note_off_c, 0, 52, 0
2, 99840, Note_off_c, 0, 72, 0
2, 99840, Note_on_c, 0, 57, 76
2, 100080, Note_off_c, 0, 57, 0
2, 100080, Note_on_c, 0, 64, 76
2, 100320, Note_off_c, 0, 64, 0
2, 100320, Note_on_c, 0, 76, 76
2, 100560, Note_off_c, 0, 76, 0
2, 100560, Note_on_c, 0, 75, 76
2, 100800, Note_off_c, 0, 75, 0
2, 100800, Note_on_c, 0, 76, 76
2, 101040, Note_off_c, 0, 76, 0
2, 101040, Note_on_c, 0, 75, 76
2, 101280, Note_off_c, 0, 75, 0
2, 101280, Note_on_c, 0, 76, 76
2, 101520, Note_off_c, 0, 76, 0
2, 101520, Note_on_c, 0, 71, 76
2, 101760, Note_off_c, 0, 71, 0
2, 101760, Note_on_c, 0, 74, 76
2, 102000, Note_off_c, 0, 74, 0
2, 102000, Note_on_c, 0, 72, 76
2, 102240, Note_off_c, 0, 72, 0
2, 102240, Note_on_c, 0, 69, 76
2, 102240, Note_on_c, 0, 45, 70
2, 102480, Note_off_c, 0, 45, 0
2, 102480, Note_on_c, 0, 52, 70
2, 102720, Note_off_c, 0, 52, 0
2, 102720, Note_off_c, 0, 69, 0
2, 102720, Note_on_c, 0, 57, 70
2, 102960, Note_off_c, 0, 57, 0
2, 102960, Note_on_c, 0, 60, 76
2, 103200, Note_off_c, 0, 60, 0
2, 103200, Note_on_c, 0, 64, 83
2, 103440, Note_off_c, 0, 64, 0
2, 103440, Note_on_c, 0, 69, 83
2, 103680, Note_off_c, 0, 69, 0
2, 103680, Note_on_c, 0, 71, 83
2, 103680, Note_on_c, 0, 40, 70
2, 103920, Note_off_c, 0, 40, 0
2, 103920, Note_on_c, 0, 52, 70
2, 104160, Note_off_c, 0, 52, 0
2, 104160, Note_off_c, 0, 71, 0
2, 104160, Note_on_c, 0, 56, 70
2, 104400, Note_off_c, 0, 56, 0
2, 104400, Note_on_c, 0, 64, 76
2, 104640, Note_off_c, 0, 64, 0
2, 104640, Note_on_c, 0, 72, 76
2, 104880, Note_off_c, 0, 72, 0
2, 104880, Note_on_c, 0, 71, 76
2, 105120, Note_off_c, 0, 71, 0
2, 105120, Note_on_c, 0, 69, 83
2, 105120, Note_on_c, 0, 45, 64
2, 105360, Note_off_c, 0, 45, 0
2, 105360, Note_on_c, 0, 52, 70
2, 105600, Note_off_c, 0, 69, 0
2, 105600, Note_off_c, 0, 52, 0
2, 105600, Note_on_c, 0, 57, 76
2, 105840, Note_off_c, 0, 57, 0
2, 105840, Note_on_c, 0, 71, 83
2, 106080, Note_off_c, 0, 71, 0
2, 106080, Note_on_c, 0, 72, 76
2, 106320, Note_off_c, 0, 72, 0
2, 106320, Note_on_c, 0, 74, 76
2, 106560, Note_off_c, 0, 74, 0
2, 106560, Note_on_c, 0, 76, 83
2, 106560, Sequencer_specific, 4, 5, 15, 15, 17
2, 106560, Note_on_c, 0, 48, 64
2, 106800, Note_off_c, 0, 48, 0
2, 106800, Note_on_c, 0, 55, 70
2, 107040, Note_off_c, 0, 55, 0
2, 107040, Note_on_c, 0, 60, 76
2, 107040, Sequencer_specific, 4, 5, 15, 15, 8
2, 107280, Note_off_c, 0, 76, 0
2, 107280, Note_off_c, 0, 60, 0
2, 107280, Note_on_c, 0, 67, 76
2, 107520, Note_off_c, 0, 67, 0
2, 107520, Note_on_c, 0, 77, 76
2, 107760, Note_off_c, 0, 77, 0
2, 107760, Note_on_c, 0, 76, 76
2, 108000, Note_off_c, 0, 76, 0
2, 108000, Note_on_c, 0, 74, 76
2, 108000, Sequencer_specific, 4, 5, 15, 15, 1
2, 108000, Note_on_c, 0, 43, 70
2, 108240, Note_off_c, 0, 43, 0
2, 108240, Note_on_c, 0, 55, 76
2, 108480, Note_off_c, 0, 55, 0
2, 108480, Note_on_c, 0, 59, 76
2, 108720, Note_off_c, 0, 74, 0
2, 108720, Note_off_c, 0, 59, 0
2, 108720, Note_on_c, 0, 65, 76
2, 108960, Note_off_c, 0, 65, 0
2, 108960, Note_on_c, 0, 76, 76
2, 109200, Note_off_c, 0, 76, 0
2, 109200, Note_on_c, 0, 74, 76
2, 109440, Note_off_c, 0, 74, 0
2, 109440, Note_on_c, 0, 72, 76
2, 109440, Note_on_c, 0, 45, 70
2, 109680, Note_off_c, 0, 45, 0
2, 109680, Note_on_c, 0, 52, 76
2, 109920, Note_off_c, 0, 52, 0
2, 109920, Note_on_c, 0, 57, 76
2, 110160, Note_off_c, 0, 57, 0
2, 110160, Note_off_c, 0, 72, 0
2, 110160, Note_on_c, 0, 64, 76
2, 110400, Note_off_c, 0, 64, 0
2, 110400, Note_on_c, 0, 74, 76
2, 110640, Note_off_c, 0, 74, 0
2, 110640, Note_on_c, 0, 72, 76
2, 110880, Note_off_c, 0, 72, 0
2, 110880, Note_on_c, 0, 71, 76
2, 110880, Note_on_c, 0, 40, 76
2, 111120, Note_off_c, 0, 40, 0
2, 111120, Note_on_c, 0, 52, 76
2, 111360, Note_off_c, 0, 52, 0
2, 111360, Note_off_c, 0, 71, 0
2, 111360, Note_on_c, 0, 64, 76
2, 111360, Sequencer_specific, 4, 5, 15, 15, 8
2, 111600, Note_off_c, 0, 64, 0
2, 111600, Note_on_c, 0, 64, 76
2, 111840, Note_off_c, 0, 64, 0
2, 111840, Note_on_c, 0, 76, 76
2, 112080, Note_off_c, 0, 76, 0
2, 112080, Note_on_c, 0, 64, 76
2, 112320, Note_off_c, 0, 64, 0
2, 112320, Note_on_c, 0, 76, 76
2, 112560, Note_off_c, 0, 76, 0
2, 112560, Note_on_c, 0, 76, 76
2, 112800, Note_off_c, 0, 76, 0
2, 112800, Note_on_c, 0, 88, 76
2, 113040, Note_off_c, 0, 88, 0
2, 113040, Note_on_c, 0, 75, 76
2, 113280, Note_off_c, 0, 75, 0
2, 113280, Note_on_c, 0, 76, 76
2, 113520, Note_off_c, 0, 76, 0
2, 113520, Note_on_c, 0, 75, 76
2, 113760, Note_off_c, 0, 75, 0
2, 113760, Note_on_c, 0, 76, 76
2, 114000, Note_off_c, 0, 76, 0
2, 114000, Note_on_c, 0, 75, 76
2, 114240, Note_off_c, 0, 75, 0
2, 114240, Note_on_c, 0, 76, 76
2, 114480, Note_off_c, 0, 76, 0
2, 114480, Note_on_c, 0, 71, 76
2, 114720, Note_off_c, 0, 71, 0
2, 114720, Note_on_c, 0, 74, 76
2, 114960, Note_off_c, 0, 74, 0
2, 114960, Note_on_c, 0, 72, 76
2, 115200, Note_off_c, 0, 72, 0
2, 115200, Note_on_c, 0, 69, 76
2, 115200, Note_on_c, 0, 45, 76
2, 115440, Note_off_c, 0, 45, 0
2, 115440, Note_on_c, 0, 52, 76
2, 115680, Note_off_c, 0, 52, 0
2, 115680, Note_off_c, 0, 69, 0
2, 115680, Note_on_c, 0, 57, 76
2, 115920, Note_off_c, 0, 57, 0
2, 115920, Note_on_c, 0, 60, 76
2, 116160, Note_off_c, 0, 60, 0
2, 116160, Note_on_c, 0, 64, 76
2, 116400, Note_off_c, 0, 64, 0
2, 116400, Note_on_c, 0, 69, 76
2, 116640, Note_off_c, 0, 69, 0
2, 116640, Note_on_c, 0, 71, 76
2, 116640, Note_on_c, 0, 40, 76
2, 116880, Note_off_c, 0, 40, 0
2, 116880, Note_on_c, 0, 52, 76
2, 117120, Note_off_c, 0, 52, 0
2, 117120, Note_off_c, 0, 71, 0
2, 117120, Note_on_c, 0, 56, 76
2, 117360, Note_off_c, 0, 56, 0
2, 117360, Note_on_c, 0, 64, 76
2, 117600, Note_off_c, 0, 64, 0
2, 117600, Note_on_c, 0, 68, 76
2, 117840, Note_off_c, 0, 68, 0
2, 117840, Note_on_c, 0, 71, 76
2, 118080, Note_off_c, 0, 71, 0
2, 118080, Note_on_c, 0, 72, 76
2, 118080, Note_on_c, 0, 45, 76
2, 118320, Note_off_c, 0, 45, 0
2, 118320, Note_on_c, 0, 52, 76
2, 118560, Note_off_c, 0, 52, 0
2, 118560, Note_off_c, 0, 72, 0
2, 118560, Note_on_c, 0, 57, 76
2, 118800, Note_off_c, 0, 57, 0
2, 118800, Note_on_c, 0, 64, 76
2, 119040, Note_off_c, 0, 64, 0
2, 119040, Note_on_c, 0, 76, 76
2, 119280, Note_off_c, 0, 76, 0
2, 119280, Note_on_c, 0, 75, 76
2, 119520, Note_off_c, 0, 75, 0
2, 119520, Note_on_c, 0, 76, 76
2, 119760, Note_off_c, 0, 76, 0
2, 119760, Note_on_c, 0, 75, 76
2, 120000, Note_off_c, 0, 75, 0
2, 120000, Note_on_c, 0, 76, 76
2, 120240, Note_off_c, 0, 76, 0
2, 120240, Note_on_c, 0, 71, 76
2, 120480, Note_off_c, 0, 71, 0
2, 120480, Note_on_c, 0, 74, 76
2, 120720, Note_off_c, 0, 74, 0
2, 120720, Note_on_c, 0, 72, 76
2, 120960, Note_off_c, 0, 72, 0
2, 120960, Note_on_c, 0, 69, 83
2, 120960, Note_on_c, 0, 45, 70
2, 121200, Note_off_c, 0, 45, 0
2, 121200, Note_on_c, 0, 52, 70
2, 121440, Note_off_c, 0, 52, 0
2, 121440, Note_off_c, 0, 69, 0
2, 121440, Note_on_c, 0, 57, 76
2, 121680, Note_off_c, 0, 57, 0
2, 121680, Note_on_c, 0, 60, 83
2, 121920, Note_off_c, 0, 60, 0
2, 121920, Note_on_c, 0, 64, 83
2, 122160, Note_off_c, 0, 64, 0
2, 122160, Note_on_c, 0, 69, 83
2, 122400, Note_off_c, 0, 69, 0
2, 122400, Note_on_c, 0, 71, 89
2, 122400, Note_on_c, 0, 40, 64
2, 122640, Note_off_c, 0, 40, 0
2, 122640, Note_on_c, 0, 52, 70
2, 122880, Note_off_c, 0, 52, 0
2, 122880, Note_off_c, 0, 71, 0
2, 122880, Note_on_c, 0, 56, 76
2, 123120, Note_off_c, 0, 56, 0
2, 123120, Note_on_c, 0, 64, 76
2, 123360, Note_off_c, 0, 64, 0
2, 123360, Note_on_c, 0, 72, 76
2, 123600, Note_off_c, 0, 72, 0
2, 123600, Note_on_c, 0, 71, 83
2, 123840, Note_off_c, 0, 71, 0
2, 123840, Note_on_c, 0, 45, 89
2, 123840, Sequencer_specific, 3, 5, 15, 14
2, 123840, Note_on_c, 0, 69, 89
2, 123960, Note_off_c, 0, 45, 0
2, 124080, Note_on_c, 0, 45, 76
2, 124080, Sequencer_specific, 3, 5, 15, 14
2, 124200, Note_off_c, 0, 45, 0
2, 124320, Note_off_c, 0, 69, 0
2, 124320, Note_on_c, 0, 45, 83
2, 124320, Sequencer_specific, 3, 5, 15, 14
2, 124440, Note_off_c, 0, 45, 0
2, 124560, Note_on_c, 0, 45, 89
2, 124560, Sequencer_specific, 3, 5, 15, 14
2, 124680, Note_off_c, 0, 45, 0
2, 124800, Note_on_c, 0, 45, 76
2, 124800, Sequencer_specific, 3, 5, 15, 14
2, 124920, Note_off_c, 0, 45, 0
2, 125040, Note_on_c, 0, 45, 83
2, 125040, Sequencer_specific, 3, 5, 15, 14
2, 125160, Note_off_c, 0, 45, 0
2, 125280, Note_on_c, 0, 45, 89
2, 125280, Sequencer_specific, 3, 5, 15, 14
2, 125280, Note_on_c, 0, 64, 78
2, 125280, Note_on_c, 0, 67, 78
2, 125280, Note_on_c, 0, 70, 78
2, 125280, Note_on_c, 0, 73, 78
2, 125400, Note_off_c, 0, 45, 0
2, 125520, Note_on_c, 0, 45, 76
2, 125520, Sequencer_specific, 3, 5, 15, 14
2, 125640, Note_off_c, 0, 45, 0
2, 125760, Note_on_c, 0, 45, 83
2, 125760, Sequencer_specific, 3, 5, 15, 14
2, 125880, Note_off_c, 0, 45, 0
2, 126000, Note_on_c, 0, 45, 89
2, 126000, Sequencer_specific, 3, 5, 15, 14
2, 126120, Note_off_c, 0, 45, 0
2, 126240, Note_on_c, 0, 45, 76
2, 126240, Sequencer_specific, 3, 5, 15, 14
2, 126360, Note_off_c, 0, 45, 0
2, 126480, Note_on_c, 0, 45, 83
2, 126480, Sequencer_specific, 3, 5, 15, 14
2, 126600, Note_off_c, 0, 45, 0
2, 126720, Note_off_c, 0, 64, 0
2, 126720, Note_off_c, 0, 67, 0
2, 126720, Note_off_c, 0, 70, 0
2, 126720, Note_off_c, 0, 73, 0
2, 126720, Note_on_c, 0, 45, 78
2, 126720, Sequencer_specific, 3, 5, 15, 14
2, 126720, Note_on_c, 0, 74, 78
2, 126720, Note_on_c, 0, 65, 78
2, 126720, Note_on_c, 0, 69, 78
2, 126840, Note_off_c, 0, 45, 0
2, 126960, Note_on_c, 0, 45, 78
2, 126960, Sequencer_specific, 3, 5, 15, 14
2, 127080, Note_off_c, 0, 45, 0
2, 127200, Note_on_c, 0, 45, 78
2, 127200, Sequencer_specific, 3, 5, 15, 14
2, 127320, Note_off_c, 0, 45, 0
2, 127440, Note_on_c, 0, 45, 78
2, 127440, Sequencer_specific, 3, 5, 15, 14
2, 127560, Note_off_c, 0, 45, 0
2, 127680, Note_off_c, 0, 69, 0
2, 127680, Note_off_c, 0, 65, 0
2, 127680, Note_off_c, 0, 74, 0
2, 127680, Note_on_c, 0, 45, 78
2, 127680, Sequencer_specific, 3, 5, 15, 14
2, 127680, Note_on_c, 0, 73, 78
2, 127680, Note_on_c, 0, 76, 78
2, 127800, Note_off_c, 0, 45, 0
2, 127920, Note_off_c, 0, 76, 0
2, 127920, Note_off_c, 0, 73, 0
2, 127920, Note_on_c, 0, 45, 78
2, 127920, Sequencer_specific, 3, 5, 15, 14
2, 127920, Note_on_c, 0, 74, 78
2, 127920, Note_on_c, 0, 77, 78
2, 128040, Note_off_c, 0, 45, 0
2, 128160, Note_off_c, 0, 77, 0
2, 128160, Note_off_c, 0, 74, 0
2, 128160, Note_on_c, 0, 45, 78
2, 128160, Sequencer_specific, 3, 5, 15, 14
2, 128160, Note_on_c, 0, 77, 78
2, 128160, Note_on_c, 0, 74, 78
2, 128160, Note_on_c, 0, 68, 78
2, 128280, Note_off_c, 0, 45, 0
2, 128400, Note_on_c, 0, 45, 78
2, 128400, Sequencer_specific, 3, 5, 15, 14
2, 128520, Note_off_c, 0, 45, 0
2, 128640, Note_on_c, 0, 45, 78
2, 128640, Sequencer_specific, 3, 5, 15, 14
2, 128760, Note_off_c, 0, 45, 0
2, 128880, Note_on_c, 0, 45, 78
2, 128880, Sequencer_specific, 3, 5, 15, 14
2, 129000, Note_off_c, 0, 45, 0
2, 129120, Note_off_c, 0, 68, 0
2, 129120, Note_off_c, 0, 74, 0
2, 129120, Note_off_c, 0, 77, 0
2, 129120, Note_on_c, 0, 45, 78
2, 129120, Sequencer_specific, 3, 5, 15, 14
2, 129120, Note_on_c, 0, 77, 78
2, 129120, Note_on_c, 0, 74, 78
2, 129120, Note_on_c, 0, 68, 78
2, 129240, Note_off_c, 0, 45, 0
2, 129360, Note_on_c, 0, 45, 78
2, 129360, Sequencer_specific, 3, 5, 15, 14
2, 129480, Note_off_c, 0, 45, 0
2, 129600, Note_off_c, 0, 68, 0
2, 129600, Note_off_c, 0, 74, 0
2, 129600, Note_off_c, 0, 77, 0
2, 129600, Note_on_c, 0, 45, 78
2, 129600, Sequencer_specific, 3, 5, 15, 14
2, 129600, Note_on_c, 0, 69, 78
2, 129600, Note_on_c, 0, 72, 78
2, 129600, Note_on_c, 0, 76, 78
2, 129720, Note_off_c, 0, 45, 0
2, 129840, Note_on_c, 0, 45, 76
2, 129840, Sequencer_specific, 3, 5, 15, 14
2, 129960, Note_off_c, 0, 45, 0
2, 130080, Note_on_c, 0, 45, 83
2, 130080, Sequencer_specific, 3, 5, 15, 14
2, 130200, Note_off_c, 0, 45, 0
2, 130320, Note_on_c, 0, 45, 89
2, 130320, Sequencer_specific, 3, 5, 15, 14
2, 130440, Note_off_c, 0, 45, 0
2, 130560, Note_on_c, 0, 45, 83
2, 130560, Sequencer_specific, 3, 5, 15, 14
2, 130680, Note_off_c, 0, 45, 0
2, 130800, Note_on_c, 0, 45, 76
2, 130800, Sequencer_specific, 3, 5, 15, 14
2, 130920, Note_off_c, 0, 45, 0
2, 131040, Note_off_c, 0, 76, 0
2, 131040, Note_off_c, 0, 72, 0
2, 131040, Note_off_c, 0, 69, 0
2, 131040, Note_on_c, 0, 45, 83
2, 131040, Sequencer_specific, 3, 5, 15, 14
2, 131040, Note_on_c, 0, 38, 89
2, 131040, Sequencer_specific, 3, 5, 15, 14
2, 131040, Note_on_c, 0, 74, 83
2, 131040, Note_on_c, 0, 65, 89
2, 131160, Note_off_c, 0, 38, 0
2, 131160, Note_off_c, 0, 45, 0
2, 131280, Note_on_c, 0, 45, 83
2, 131280, Sequencer_specific, 3, 5, 15, 14
2, 131280, Note_on_c, 0, 38, 83
2, 131280, Sequencer_specific, 3, 5, 15, 14
2, 131400, Note_off_c, 0, 38, 0
2, 131400, Note_off_c, 0, 45, 0
2, 131520, Note_on_c, 0, 45, 76
2, 131520, Sequencer_specific, 3, 5, 15, 14
2, 131520, Note_on_c, 0, 38, 83
2, 131520, Sequencer_specific, 3, 5, 15, 14
2, 131640, Note_off_c, 0, 38, 0
2, 131640, Note_off_c, 0, 45, 0
2, 131760, Note_on_c, 0, 45, 89
2, 131760, Sequencer_specific, 3, 5, 15, 14
2, 131760, Note_on_c, 0, 38, 83
2, 131760, Sequencer_specific, 3, 5, 15, 14
2, 131880, Note_off_c, 0, 38, 0
2, 131880, Note_off_c, 0, 45, 0
2, 132000, Note_off_c, 0, 65, 0
2, 132000, Note_off_c, 0, 74, 0
2, 132000, Note_on_c, 0, 45, 78
2, 132000, Sequencer_specific, 3, 5, 15, 14
2, 132000, Note_on_c, 0, 38, 78
2, 132000, Sequencer_specific, 3, 5, 15, 14
2, 132000, Note_on_c, 0, 72, 83
2, 132000, Note_on_c, 0, 64, 83
2, 132120, Note_off_c, 0, 38, 0
2, 132120, Note_off_c, 0, 45, 0
2, 132240, Note_off_c, 0, 64, 0
2, 132240, Note_off_c, 0, 72, 0
2, 132240, Note_on_c, 0, 45, 78
2, 132240, Sequencer_specific, 3, 5, 15, 14
2, 132240, Note_on_c, 0, 38, 78
2, 132240, Sequencer_specific, 3, 5, 15, 14
2, 132240, Note_on_c, 0, 71, 78
2, 132240, Note_on_c, 0, 62, 78
2, 132360, Note_off_c, 0, 38, 0
2, 132360, Note_off_c, 0, 45, 0
2, 132480, Note_off_c, 0, 62, 0
2, 132480, Note_off_c, 0, 71, 0
2, 132480, Note_on_c, 0, 39, 76
2, 132480, Sequencer_specific, 3, 5, 15, 14
2, 132480, Note_on_c, 0, 45, 83
2, 132480, Sequencer_specific, 3, 5, 15, 14
2, 132480, Note_on_c, 0, 60, 83
2, 132480, Note_on_c, 0, 66, 78
2, 132480, Note_on_c, 0, 69, 83
2, 132600, Note_off_c, 0, 45, 0
2, 132600, Note_off_c, 0, 39, 0
2, 132720, Note_on_c, 0, 45, 76
2, 132720, Sequencer_specific, 3, 5, 15, 14
2, 132720, Note_on_c, 0, 39, 78
2, 132720, Sequencer_specific, 3, 5, 15, 14
2, 132780, Note_off_c, 0, 39, 0
2, 132840, Note_off_c, 0, 45, 0
2, 132960, Note_on_c, 0, 45, 78
2, 132960, Sequencer_specific, 3, 5, 15, 14
2, 132960, Note_on_c, 0, 39, 78
2, 132960, Sequencer_specific, 3, 5, 15, 14
2, 133020, Note_off_c, 0, 39, 0
2, 133080, Note_off_c, 0, 45, 0
2, 133200, Note_on_c, 0, 45, 78
2, 133200, Sequencer_specific, 3, 5, 15, 14
2, 133200, Note_on_c, 0, 39, 78
2, 133200, Sequencer_specific, 3, 5, 15, 14
2, 133215, Note_off_c, 0, 39, 0
2, 133320, Note_off_c, 0, 45, 0
2, 133440, Note_off_c, 0, 69, 0
2, 133440, Note_off_c, 0, 66, 0
2, 133440, Note_off_c, 0, 60, 0
2, 133440, Note_on_c, 0, 45, 78
2, 133440, Sequencer_specific, 3, 5, 15, 14
2, 133440, Note_on_c, 0, 60, 78
2, 133440, Note_on_c, 0, 69, 78
2, 133440, Note_on_c, 0, 39, 78
2, 133440, Sequencer_specific, 3, 5, 15, 14
2, 133500, Note_off_c, 0, 39, 0
2, 133560, Note_off_c, 0, 45, 0
2, 133680, Note_on_c, 0, 45, 78
2, 133680, Sequencer_specific, 3, 5, 15, 14
2, 133680, Note_on_c, 0, 39, 78
2, 133680, Sequencer_specific, 3, 5, 15, 14
2, 133740, Note_off_c, 0, 39, 0
2, 133800, Note_off_c, 0, 45, 0
2, 133920, Note_off_c, 0, 69, 0
2, 133920, Note_off_c, 0, 60, 0
2, 133920, Note_on_c, 0, 45, 78
2, 133920, Sequencer_specific, 3, 5, 15, 14
2, 133920, Note_on_c, 0, 40, 78
2, 133920, Sequencer_specific, 3, 5, 15, 14
2, 133920, Note_on_c, 0, 69, 78
2, 133920, Note_on_c, 0, 60, 78
2, 134040, Note_off_c, 0, 40, 0
2, 134040, Note_off_c, 0, 45, 0
2, 134160, Note_on_c, 0, 45, 78
2, 134160, Sequencer_specific, 3, 5, 15, 14
2, 134160, Note_on_c, 0, 40, 78
2, 134160, Sequencer_specific, 3, 5, 15, 14
2, 134280, Note_off_c, 0, 40, 0
2, 134280, Note_off_c, 0, 45, 0
2, 134400, Note_off_c, 0, 60, 0
2, 134400, Note_off_c, 0, 69, 0
2, 134400, Note_on_c, 0, 45, 78
2, 134400, Sequencer_specific, 3, 5, 15, 14
2, 134400, Note_on_c, 0, 40, 78
2, 134400, Sequencer_specific, 3, 5, 15, 14
2, 134400, Note_on_c, 0, 72, 78
2, 134400, Note_on_c, 0, 64, 78
2, 134520, Note_off_c, 0, 40, 0
2, 134520, Note_off_c, 0, 45, 0
2, 134640, Note_on_c, 0, 45, 78
2, 134640, Sequencer_specific, 3, 5, 15, 14
2, 134640, Note_on_c, 0, 40, 78
2, 134640, Sequencer_specific, 3, 5, 15, 14
2, 134760, Note_off_c, 0, 40, 0
2, 134760, Note_off_c, 0, 45, 0
2, 134880, Note_off_c, 0, 64, 0
2, 134880, Note_off_c, 0, 72, 0
2, 134880, Note_on_c, 0, 44, 78
2, 134880, Sequencer_specific, 3, 5, 15, 14
2, 134880, Note_on_c, 0, 40, 78
2, 134880, Sequencer_specific, 3, 5, 15, 14
2, 134880, Note_on_c, 0, 71, 78
2, 134880, Note_on_c, 0, 62, 78
2, 135000, Note_off_c, 0, 40, 0
2, 135000, Note_off_c, 0, 44, 0
2, 135120, Note_on_c, 0, 44, 78
2, 135120, Sequencer_specific, 3, 5, 15, 14
2, 135120, Note_on_c, 0, 40, 78
2, 135120, Sequencer_specific, 3, 5, 15, 14
2, 135240, Note_off_c, 0, 40, 0
2, 135240, Note_off_c, 0, 44, 0
2, 135360, Note_off_c, 0, 62, 0
2, 135360, Note_off_c, 0, 71, 0
2, 135360, Note_on_c, 0, 45, 78
2, 135360, Sequencer_specific, 3, 5, 15, 14
2, 135360, Note_on_c, 0, 33, 78
2, 135360, Sequencer_specific, 3, 5, 15, 14
2, 135360, Note_on_c, 0, 69, 78
2, 135360, Note_on_c, 0, 60, 78
2, 135480, Note_off_c, 0, 33, 0
2, 135480, Note_off_c, 0, 45, 0
2, 135600, Note_on_c, 0, 45, 76
2, 135600, Sequencer_specific, 3, 5, 15, 14
2, 135720, Note_off_c, 0, 45, 0
2, 135840, Note_on_c, 0, 45, 83
2, 135840, Sequencer_specific, 3, 5, 15, 14
2, 135960, Note_off_c, 0, 45, 0
2, 136080, Note_on_c, 0, 45, 89
2, 136080, Sequencer_specific, 3, 5, 15, 14
2, 136200, Note_off_c, 0, 45, 0
2, 136320, Note_on_c, 0, 45, 76
2, 136320, Sequencer_specific, 3, 5, 15, 14
2, 136440, Note_off_c, 0, 45, 0
2, 136560, Note_on_c, 0, 45, 83
2, 136560, Sequencer_specific, 3, 5, 15, 14
2, 136680, Note_off_c, 0, 45, 0
2, 136800, Note_off_c, 0, 60, 0
2, 136800, Note_off_c, 0, 69, 0
2, 136800, Note_on_c, 0, 45, 76
2, 136800, Sequencer_specific, 3, 5, 15, 14
2, 136800, Note_on_c, 0, 64, 83
2, 136800, Note_on_c, 0, 67, 78
2, 136800, Note_on_c, 0, 70, 78
2, 136800, Note_on_c, 0, 73, 78
2, 136920, Note_off_c, 0, 45, 0
2, 137040, Note_on_c, 0, 45, 89
2, 137040, Sequencer_specific, 3, 5, 15, 14
2, 137160, Note_off_c, 0, 45, 0
2, 137280, Note_on_c, 0, 45, 83
2, 137280, Sequencer_specific, 3, 5, 15, 14
2, 137400, Note_off_c, 0, 45, 0
2, 137520, Note_on_c, 0, 45, 89
2, 137520, Sequencer_specific, 3, 5, 15, 14
2, 137640, Note_off_c, 0, 45, 0
2, 137760, Note_on_c, 0, 45, 76
2, 137760, Sequencer_specific, 3, 5, 15, 14
2, 137880, Note_off_c, 0, 45, 0
2, 138000, Note_on_c, 0, 45, 83
2, 138000, Sequencer_specific, 3, 5, 15, 14
2, 138120, Note_off_c, 0, 45, 0
2, 138240, Note_off_c, 0, 64, 0
2, 138240, Note_off_c, 0, 73, 0
2, 138240, Note_off_c, 0, 70, 0
2, 138240, Note_off_c, 0, 67, 0
2, 138240, Note_on_c, 0, 45, 78
2, 138240, Sequencer_specific, 3, 5, 15, 14
2, 138240, Note_on_c, 0, 74, 78
2, 138240, Note_on_c, 0, 69, 78
2, 138240, Note_on_c, 0, 65, 78
2, 138360, Note_off_c, 0, 45, 0
2, 138480, Note_on_c, 0, 45, 78
2, 138480, Sequencer_specific, 3, 5, 15, 14
2, 138600, Note_off_c, 0, 45, 0
2, 138720, Note_on_c, 0, 45, 78
2, 138720, Sequencer_specific, 3, 5, 15, 14
2, 138840, Note_off_c, 0, 45, 0
2, 138960, Note_on_c, 0, 45, 78
2, 138960, Sequencer_specific, 3, 5, 15, 14
2, 139080, Note_off_c, 0, 45, 0
2, 139200, Note_off_c, 0, 65, 0
2, 139200, Note_off_c, 0, 69, 0
2, 139200, Note_off_c, 0, 74, 0
2, 139200, Note_on_c, 0, 45, 78
2, 139200, Sequencer_specific, 3, 5, 15, 14
2, 139200, Note_on_c, 0, 73, 78
2, 139200, Note_on_c, 0, 76, 78
2, 139320, Note_off_c, 0, 45, 0
2, 139440, Note_off_c, 0, 76, 0
2, 139440, Note_off_c, 0, 73, 0
2, 139440, Note_on_c, 0, 45, 78
2, 139440, Sequencer_specific, 3, 5, 15, 14
2, 139440, Note_on_c, 0, 74, 78
2, 139440, Note_on_c, 0, 77, 78
2, 139560, Note_off_c, 0, 45, 0
2, 139680, Note_off_c, 0, 77, 0
2, 139680, Note_off_c, 0, 74, 0
2, 139680, Note_on_c, 0, 45, 78
2, 139680, Sequencer_specific, 3, 5, 15, 14
2, 139680, Note_on_c, 0, 74, 78
2, 139680, Note_on_c, 0, 77, 78
2, 139800, Note_off_c, 0, 45, 0
2, 139920, Note_on_c, 0, 45, 78
2, 139920, Sequencer_specific, 3, 5, 15, 14
2, 140040, Note_off_c, 0, 45, 0
2, 140160, Note_on_c, 0, 45, 78
2, 140160, Sequencer_specific, 3, 5, 15, 14
2, 140280, Note_off_c, 0, 45, 0
2, 140400, Note_on_c, 0, 45, 78
2, 140400, Sequencer_specific, 3, 5, 15, 14
2, 140520, Note_off_c, 0, 45, 0
2, 140640, Note_off_c, 0, 77, 0
2, 140640, Note_off_c, 0, 74, 0
2, 140640, Note_on_c, 0, 45, 78
2, 140640, Sequencer_specific, 3, 5, 15, 14
2, 140640, Note_on_c, 0, 74, 78
2, 140640, Note_on_c, 0, 77, 83
2, 140760, Note_off_c, 0, 45, 0
2, 140880, Note_on_c, 0, 45, 78
2, 140880, Sequencer_specific, 3, 5, 15, 14
2, 141000, Note_off_c, 0, 45, 0
2, 141120, Note_off_c, 0, 77, 0
2, 141120, Note_off_c, 0, 74, 0
2, 141120, Note_on_c, 0, 46, 76
2, 141120, Sequencer_specific, 3, 5, 15, 14
2, 141120, Note_on_c, 0, 77, 89
2, 141120, Note_on_c, 0, 74, 78
2, 141240, Note_off_c, 0, 46, 0
2, 141360, Note_on_c, 0, 46, 83
2, 141360, Sequencer_specific, 3, 5, 15, 14
2, 141480, Note_off_c, 0, 46, 0
2, 141600, Note_on_c, 0, 46, 89
2, 141600, Sequencer_specific, 3, 5, 15, 14
2, 141720, Note_off_c, 0, 46, 0
2, 141840, Note_on_c, 0, 46, 83
2, 141840, Sequencer_specific, 3, 5, 15, 14
2, 141960, Note_off_c, 0, 46, 0
2, 142080, Note_on_c, 0, 46, 89
2, 142080, Sequencer_specific, 3, 5, 15, 14
2, 142200, Note_off_c, 0, 46, 0
2, 142320, Note_on_c, 0, 46, 76
2, 142320, Sequencer_specific, 3, 5, 15, 14
2, 142440, Note_off_c, 0, 46, 0
2, 142560, Note_off_c, 0, 77, 0
2, 142560, Note_off_c, 0, 74, 0
2, 142560, Note_on_c, 0, 46, 83
2, 142560, Sequencer_specific, 3, 5, 15, 14
2, 142560, Note_on_c, 0, 75, 76
2, 142560, Note_on_c, 0, 67, 78
2, 142680, Note_off_c, 0, 46, 0
2, 142800, Note_on_c, 0, 46, 78
2, 142800, Sequencer_specific, 3, 5, 15, 14
2, 142920, Note_off_c, 0, 46, 0
2, 143040, Note_on_c, 0, 46, 78
2, 143040, Sequencer_specific, 3, 5, 15, 14
2, 143160, Note_off_c, 0, 46, 0
2, 143280, Note_on_c, 0, 46, 78
2, 143280, Sequencer_specific, 3, 5, 15, 14
2, 143400, Note_off_c, 0, 46, 0
2, 143520, Note_off_c, 0, 67, 0
2, 143520, Note_off_c, 0, 75, 0
2, 143520, Note_on_c, 0, 46, 78
2, 143520, Sequencer_specific, 3, 5, 15, 14
2, 143520, Note_on_c, 0, 74, 76
2, 143520, Note_on_c, 0, 65, 78
2, 143640, Note_off_c, 0, 46, 0
2, 143760, Note_off_c, 0, 65, 0
2, 143760, Note_off_c, 0, 74, 0
2, 143760, Note_on_c, 0, 46, 78
2, 143760, Sequencer_specific, 3, 5, 15, 14
2, 143760, Note_on_c, 0, 72, 83
2, 143760, Note_on_c, 0, 63, 78
2, 143880, Note_off_c, 0, 46, 0
2, 144000, Note_off_c, 0, 63, 0
2, 144000, Note_off_c, 0, 72, 0
2, 144000, Note_on_c, 0, 46, 78
2, 144000, Sequencer_specific, 3, 5, 15, 14
2, 144000, Note_on_c, 0, 70, 83
2, 144000, Note_on_c, 0, 65, 78
2, 144000, Note_on_c, 0, 62, 78
2, 144120, Note_off_c, 0, 46, 0
2, 144240, Note_on_c, 0, 46, 78
2, 144240, Sequencer_specific, 3, 5, 15, 14
2, 144360, Note_off_c, 0, 46, 0
2, 144480, Note_on_c, 0, 46, 83
2, 144480, Sequencer_specific, 3, 5, 15, 14
2, 144600, Note_off_c, 0, 46, 0
2, 144720, Note_on_c, 0, 46, 76
2, 144720, Sequencer_specific, 3, 5, 15, 14
2, 144840, Note_off_c, 0, 46, 0
2, 144960, Note_off_c, 0, 62, 0
2, 144960, Note_off_c, 0, 65, 0
2, 144960, Note_off_c, 0, 70, 0
2, 144960, Note_on_c, 0, 46, 78
2, 144960, Sequencer_specific, 3, 5, 15, 14
2, 144960, Note_on_c, 0, 62, 83
2, 144960, Note_on_c, 0, 65, 78
2, 144960, Note_on_c, 0, 69, 78
2, 145080, Note_off_c, 0, 46, 0
2, 145200, Note_on_c, 0, 46, 89
2, 145200, Sequencer_specific, 3, 5, 15, 14
2, 145320, Note_off_c, 0, 46, 0
2, 145440, Note_off_c, 0, 69, 0
2, 145440, Note_off_c, 0, 65, 0
2, 145440, Note_off_c, 0, 62, 0
2, 145440, Note_on_c, 0, 47, 78
2, 145440, Note_on_c, 0, 62, 78
2, 145440, Note_on_c, 0, 65, 78
2, 145440, Note_on_c, 0, 68, 78
2, 145680, Note_off_c, 0, 47, 0
2, 145680, Note_on_c, 0, 47, 78
2, 145920, Note_off_c, 0, 47, 0
2, 145920, Note_on_c, 0, 47, 78
2, 146160, Note_off_c, 0, 47, 0
2, 146160, Note_on_c, 0, 47, 78
2, 146400, Note_off_c, 0, 68, 0
2, 146400, Note_off_c, 0, 65, 0
2, 146400, Note_off_c, 0, 62, 0
2, 146400, Note_off_c, 0, 47, 0
2, 146400, Note_on_c, 0, 47, 78
2, 146400, Note_on_c, 0, 62, 78
2, 146400, Note_on_c, 0, 65, 78
2, 146400, Note_on_c, 0, 68, 78
2, 146640, Note_off_c, 0, 47, 0
2, 146640, Note_on_c, 0, 47, 78
2, 146880, Note_off_c, 0, 68, 0
2, 146880, Note_off_c, 0, 65, 0
2, 146880, Note_off_c, 0, 62, 0
2, 146880, Note_off_c, 0, 47, 0
2, 146880, Note_on_c, 0, 60, 78
2, 146880, Note_on_c, 0, 64, 78
2, 146880, Note_on_c, 0, 69, 78
2, 146880, Note_on_c, 0, 48, 78
2, 147840, Note_off_c, 0, 48, 0
2, 147840, Note_off_c, 0, 69, 0
2, 147840, Note_off_c, 0, 64, 0
2, 147840, Note_off_c, 0, 60, 0
2, 148320, Note_on_c, 0, 71, 78
2, 148320, Sequencer_specific, 3, 5, 15, 14
2, 148320, Note_on_c, 0, 64, 78
2, 148320, Sequencer_specific, 3, 5, 15, 14
2, 148320, Note_on_c, 0, 65, 78
2, 148320, Sequencer_specific, 3, 5, 15, 14
2, 148320, Note_on_c, 0, 52, 78
2, 148320, Sequencer_specific, 3, 5, 15, 14
2, 148320, Note_on_c, 0, 56, 78
2, 148320, Sequencer_specific, 3, 5, 15, 14
2, 148560, Note_off_c, 0, 56, 0
2, 148560, Note_off_c, 0, 52, 0
2, 148560, Note_off_c, 0, 65, 0
2, 148560, Note_off_c, 0, 64, 0
2, 148560, Note_off_c, 0, 71, 0
2, 149760, Note_on_c, 0, 60, 78
2, 149920, Note_off_c, 0, 60, 0
2, 149920, Note_on_c, 0, 60, 78
2, 150080, Note_off_c, 0, 60, 0
2, 150080, Note_on_c, 0, 64, 78
2, 150240, Note_off_c, 0, 64, 0
2, 150240, Note_on_c, 0, 69, 78
2, 150400, Note_off_c, 0, 69, 0
2, 150400, Note_on_c, 0, 72, 78
2, 150560, Note_off_c, 0, 72, 0
2, 150560, Note_on_c, 0, 76, 78
2, 150720, Note_off_c, 0, 76, 0
2, 150720, Note_on_c, 0, 74, 78
2, 150720, Note_on_c, 0, 57, 78
2, 150720, Note_on_c, 0, 60, 78
2, 150720, Note_on_c, 0, 64, 78
2, 150720, Sequencer_specific, 4, 5, 15, 15, 8
2, 150880, Note_off_c, 0, 74, 0
2, 150880, Note_on_c, 0, 72, 78
2, 151040, Note_off_c, 0, 72, 0
2, 151040, Note_on_c, 0, 71, 78
2, 151200, Note_off_c, 0, 64, 0
2, 151200, Note_off_c, 0, 60, 0
2, 151200, Note_off_c, 0, 57, 0
2, 151200, Note_off_c, 0, 71, 0
2, 151200, Note_on_c, 0, 69, 78
2, 151200, Note_on_c, 0, 64, 78
2, 151200, Sequencer_specific, 4, 5, 15, 15, 8
2, 151200, Note_on_c, 0, 60, 78
2, 151200, Note_on_c, 0, 57, 78
2, 151360, Note_off_c, 0, 69, 0
2, 151360, Note_on_c, 0, 72, 78
2, 151520, Note_off_c, 0, 72, 0
2, 151520, Note_on_c, 0, 76, 78
2, 151680, Note_off_c, 0, 57, 0
2, 151680, Note_off_c, 0, 60, 0
2, 151680, Note_off_c, 0, 64, 0
2, 151680, Note_off_c, 0, 76, 0
2, 151680, Note_on_c, 0, 81, 78
2, 151840, Note_off_c, 0, 81, 0
2, 151840, Note_on_c, 0, 84, 78
2, 152000, Note_off_c, 0, 84, 0
2, 152000, Note_on_c, 0, 88, 78
2, 152160, Note_off_c, 0, 88, 0
2, 152160, Note_on_c, 0, 86, 78
2, 152160, Note_on_c, 0, 64, 78
2, 152160, Sequencer_specific, 4, 5, 15, 15, 8
2, 152160, Note_on_c, 0, 60, 78
2, 152160, Note_on_c, 0, 57, 78
2, 152320, Note_off_c, 0, 86, 0
2, 152320, Note_on_c, 0, 84, 78
2, 152480, Note_off_c, 0, 84, 0
2, 152480, Note_on_c, 0, 83, 78
2, 152640, Note_off_c, 0, 57, 0
2, 152640, Note_off_c, 0, 60, 0
2, 152640, Note_off_c, 0, 64, 0
2, 152640, Note_off_c, 0, 83, 0
2, 152640, Note_on_c, 0, 81, 78
2, 152640, Note_on_c, 0, 64, 78
2, 152640, Sequencer_specific, 4, 5, 15, 15, 8
2, 152640, Note_on_c, 0, 60, 78
2, 152640, Note_on_c, 0, 57, 78
2, 152800, Note_off_c, 0, 81, 0
2, 152800, Note_on_c, 0, 84, 78
2, 152960, Note_off_c, 0, 84, 0
2, 152960, Note_on_c, 0, 88, 78
2, 153120, Note_off_c, 0, 57, 0
2, 153120, Note_off_c, 0, 60, 0
2, 153120, Note_off_c, 0, 64, 0
2, 153120, Note_off_c, 0, 88, 0
2, 153120, Note_on_c, 0, 93, 78
2, 153280, Note_off_c, 0, 93, 0
2, 153280, Note_on_c, 0, 96, 78
2, 153440, Note_off_c, 0, 96, 0
2, 153440, Note_on_c, 0, 100, 78
2, 153600, Note_off_c, 0, 100, 0
2, 153600, Note_on_c, 0, 98, 78
2, 153600, Note_on_c, 0, 57, 78
2, 153600, Note_on_c, 0, 60, 78
2, 153600, Note_on_c, 0, 64, 78
2, 153600, Sequencer_specific, 4, 5, 15, 15, 8
2, 153760, Note_off_c, 0, 98, 0
2, 153760, Note_on_c, 0, 96, 78
2, 153920, Note_off_c, 0, 96, 0
2, 153920, Note_on_c, 0, 95, 78
2, 154080, Note_off_c, 0, 64, 0
2, 154080, Note_off_c, 0, 60, 0
2, 154080, Note_off_c, 0, 57, 0
2, 154080, Note_off_c, 0, 95, 0
2, 154080, Note_on_c, 0, 94, 78
2, 154080, Note_on_c, 0, 64, 78
2, 154080, Sequencer_specific, 4, 5, 15, 15, 8
2, 154080, Note_on_c, 0, 60, 78
2, 154080, Note_on_c, 0, 57, 78
2, 154240, Note_off_c, 0, 94, 0
2, 154240, Note_on_c, 0, 93, 78
2, 154400, Note_off_c, 0, 93, 0
2, 154400, Note_on_c, 0, 92, 78
2, 154560, Note_off_c, 0, 57, 0
2, 154560, Note_off_c, 0, 60, 0
2, 154560, Note_off_c, 0, 64, 0
2, 154560, Note_off_c, 0, 92, 0
2, 154560, Note_on_c, 0, 91, 78
2, 154720, Note_off_c, 0, 91, 0
2, 154720, Note_on_c, 0, 90, 78
2, 154880, Note_off_c, 0, 90, 0
2, 154880, Note_on_c, 0, 89, 78
2, 155040, Note_off_c, 0, 89, 0
2, 155040, Note_on_c, 0, 88, 78
2, 155200, Note_off_c, 0, 88, 0
2, 155200, Note_on_c, 0, 87, 78
2, 155360, Note_off_c, 0, 87, 0
2, 155360, Note_on_c, 0, 86, 78
2, 155520, Note_off_c, 0, 86, 0
2, 155520, Note_on_c, 0, 85, 78
2, 155680, Note_off_c, 0, 85, 0
2, 155680, Note_on_c, 0, 84, 78
2, 155840, Note_off_c, 0, 84, 0
2, 155840, Note_on_c, 0, 83, 78
2, 156000, Note_off_c, 0, 83, 0
2, 156000, Note_on_c, 0, 82, 78
2, 156160, Note_off_c, 0, 82, 0
2, 156160, Note_on_c, 0, 81, 78
2, 156320, Note_off_c, 0, 81, 0
2, 156320, Note_on_c, 0, 80, 78
2, 156480, Note_off_c, 0, 80, 0
2, 156480, Note_on_c, 0, 79, 78
2, 156640, Note_off_c, 0, 79, 0
2, 156640, Note_on_c, 0, 78, 78
2, 156800, Note_off_c, 0, 78, 0
2, 156800, Note_on_c, 0, 77, 78
2, 156960, Note_off_c, 0, 77, 0
2, 156960, Note_on_c, 0, 76, 78
2, 157200, Note_off_c, 0, 76, 0
2, 157200, Note_on_c, 0, 75, 78
2, 157440, Note_off_c, 0, 75, 0
2, 157440, Note_on_c, 0, 76, 83
2, 157680, Note_off_c, 0, 76, 0
2, 157680, Note_on_c, 0, 71, 78
2, 157920, Note_off_c, 0, 71, 0
2, 157920, Note_on_c, 0, 74, 78
2, 158160, Note_off_c, 0, 74, 0
2, 158160, Note_on_c, 0, 72, 78
2, 158400, Note_off_c, 0, 72, 0
2, 158400, Note_on_c, 0, 69, 83
2, 158400, Note_on_c, 0, 45, 70
2, 158640, Note_off_c, 0, 45, 0
2, 158640, Note_on_c, 0, 52, 76
2, 158880, Note_off_c, 0, 52, 0
2, 158880, Note_off_c, 0, 69, 0
2, 158880, Note_on_c, 0, 57, 78
2, 159120, Note_off_c, 0, 57, 0
2, 159120, Note_on_c, 0, 60, 70
2, 159360, Note_off_c, 0, 60, 0
2, 159360, Note_on_c, 0, 64, 76
2, 159600, Note_off_c, 0, 64, 0
2, 159600, Note_on_c, 0, 69, 83
2, 159840, Note_off_c, 0, 69, 0
2, 159840, Note_on_c, 0, 71, 89
2, 159840, Note_on_c, 0, 40, 76
2, 160080, Note_off_c, 0, 40, 0
2, 160080, Note_on_c, 0, 52, 78
2, 160320, Note_off_c, 0, 52, 0
2, 160320, Note_off_c, 0, 71, 0
2, 160320, Note_on_c, 0, 56, 78
2, 160560, Note_off_c, 0, 56, 0
2, 160560, Note_on_c, 0, 64, 78
2, 160800, Note_off_c, 0, 64, 0
2, 160800, Note_on_c, 0, 68, 70
2, 161040, Note_off_c, 0, 68, 0
2, 161040, Note_on_c, 0, 71, 70
2, 161280, Note_off_c, 0, 71, 0
2, 161280, Note_on_c, 0, 72, 78
2, 161280, Note_on_c, 0, 45, 83
2, 161520, Note_off_c, 0, 45, 0
2, 161520, Note_on_c, 0, 52, 78
2, 161760, Note_off_c, 0, 52, 0
2, 161760, Note_off_c, 0, 72, 0
2, 161760, Note_on_c, 0, 57, 78
2, 162000, Note_off_c, 0, 57, 0
2, 162000, Note_on_c, 0, 64, 78
2, 162000, Sequencer_specific, 4, 5, 15, 15, 16
2, 162240, Note_off_c, 0, 64, 0
2, 162240, Note_on_c, 0, 76, 78
2, 162480, Note_off_c, 0, 76, 0
2, 162480, Note_on_c, 0, 75, 78
2, 162720, Note_off_c, 0, 75, 0
2, 162720, Note_on_c, 0, 76, 83
2, 162960, Note_off_c, 0, 76, 0
2, 162960, Note_on_c, 0, 75, 78
2, 163200, Note_off_c, 0, 75, 0
2, 163200, Note_on_c, 0, 76, 83
2, 163440, Note_off_c, 0, 76, 0
2, 163440, Note_on_c, 0, 71, 78
2, 163680, Note_off_c, 0, 71, 0
2, 163680, Note_on_c, 0, 74, 70
2, 163920, Note_off_c, 0, 74, 0
2, 163920, Note_on_c, 0, 72, 78
2, 164160, Note_off_c, 0, 72, 0
2, 164160, Note_on_c, 0, 69, 78
2, 164160, Note_on_c, 0, 45, 70
2, 164400, Note_off_c, 0, 45, 0
2, 164400, Note_on_c, 0, 52, 76
2, 164640, Note_off_c, 0, 52, 0
2, 164640, Note_off_c, 0, 69, 0
2, 164640, Note_on_c, 0, 57, 76
2, 164880, Note_off_c, 0, 57, 0
2, 164880, Note_on_c, 0, 60, 83
2, 165120, Note_off_c, 0, 60, 0
2, 165120, Note_on_c, 0, 64, 83
2, 165360, Note_off_c, 0, 64, 0
2, 165360, Note_on_c, 0, 69, 76
2, 165600, Note_off_c, 0, 69, 0
2, 165600, Note_on_c, 0, 71, 83
2, 165600, Note_on_c, 0, 40, 64
2, 165840, Note_off_c, 0, 40, 0
2, 165840, Note_on_c, 0, 52, 70
2, 166080, Note_off_c, 0, 52, 0
2, 166080, Note_off_c, 0, 71, 0
2, 166080, Note_on_c, 0, 56, 76
2, 166320, Note_off_c, 0, 56, 0
2, 166320, Note_on_c, 0, 64, 83
2, 166560, Note_off_c, 0, 64, 0
2, 166560, Note_on_c, 0, 72, 78
2, 166800, Note_off_c, 0, 72, 0
2, 166800, Note_on_c, 0, 71, 78
2, 167040, Note_off_c, 0, 71, 0
2, 167040, Note_on_c, 0, 69, 78
2, 167040, Note_on_c, 0, 45, 78
2, 167280, Note_off_c, 0, 45, 0
2, 167280, Note_on_c, 0, 52, 78
2, 167520, Note_off_c, 0, 52, 0
2, 167520, Note_off_c, 0, 69, 0
2, 167520, Note_on_c, 0, 57, 78
2, 167760, Note_off_c, 0, 57, 0
2, 167760, Note_on_c, 0, 71, 78
2, 168000, Note_off_c, 0, 71, 0
2, 168000, Note_on_c, 0, 72, 78
2, 168240, Note_off_c, 0, 72, 0
2, 168240, Note_on_c, 0, 74, 78
2, 168480, Note_off_c, 0, 74, 0
2, 168480, Note_on_c, 0, 76, 78
2, 168480, Sequencer_specific, 4, 5, 15, 15, 16
2, 168480, Note_on_c, 0, 48, 70
2, 168720, Note_off_c, 0, 48, 0
2, 168720, Note_on_c, 0, 55, 78
2, 168960, Note_off_c, 0, 55, 0
2, 168960, Note_on_c, 0, 60, 78
2, 168960, Sequencer_specific, 4, 5, 15, 15, 8
2, 169200, Note_off_c, 0, 76, 0
2, 169200, Note_off_c, 0, 60, 0
2, 169200, Note_on_c, 0, 67, 78
2, 169440, Note_off_c, 0, 67, 0
2, 169440, Note_on_c, 0, 77, 78
2, 169680, Note_off_c, 0, 77, 0
2, 169680, Note_on_c, 0, 76, 78
2, 169920, Note_off_c, 0, 76, 0
2, 169920, Note_on_c, 0, 74, 78
2, 169920, Sequencer_specific, 4, 5, 15, 15, 16
2, 169920, Note_on_c, 0, 43, 64
2, 170160, Note_off_c, 0, 43, 0
2, 170160, Note_on_c, 0, 55, 78
2, 170400, Note_off_c, 0, 55, 0
2, 170400, Note_on_c, 0, 59, 78
2, 170640, Note_off_c, 0, 74, 0
2, 170640, Note_off_c, 0, 59, 0
2, 170640, Note_on_c, 0, 65, 78
2, 170880, Note_off_c, 0, 65, 0
2, 170880, Note_on_c, 0, 76, 78
2, 171120, Note_off_c, 0, 76, 0
2, 171120, Note_on_c, 0, 74, 78
2, 171360, Note_off_c, 0, 74, 0
2, 171360, Note_on_c, 0, 72, 78
2, 171360, Note_on_c, 0, 45, 70
2, 171600, Note_off_c, 0, 45, 0
2, 171600, Note_on_c, 0, 52, 78
2, 171840, Note_off_c, 0, 52, 0
2, 171840, Note_on_c, 0, 57, 78
2, 172080, Note_off_c, 0, 72, 0
2, 172080, Note_off_c, 0, 57, 0
2, 172080, Note_on_c, 0, 64, 78
2, 172320, Note_off_c, 0, 64, 0
2, 172320, Note_on_c, 0, 74, 78
2, 172560, Note_off_c, 0, 74, 0
2, 172560, Note_on_c, 0, 72, 78
2, 172800, Note_off_c, 0, 72, 0
2, 172800, Note_on_c, 0, 71, 76
2, 172800, Note_on_c, 0, 40, 64
2, 173040, Note_off_c, 0, 40, 0
2, 173040, Note_on_c, 0, 52, 76
2, 173280, Note_off_c, 0, 52, 0
2, 173280, Note_off_c, 0, 71, 0
2, 173280, Note_on_c, 0, 64, 64
2, 173280, Sequencer_specific, 4, 5, 15, 15, 8
2, 173520, Note_off_c, 0, 64, 0
2, 173520, Note_on_c, 0, 64, 70
2, 173760, Note_off_c, 0, 64, 0
2, 173760, Note_on_c, 0, 76, 83
2, 174000, Note_off_c, 0, 76, 0
2, 174000, Note_on_c, 0, 64, 76
2, 174240, Note_off_c, 0, 64, 0
2, 174240, Note_on_c, 0, 76, 76
2, 174480, Note_off_c, 0, 76, 0
2, 174480, Note_on_c, 0, 76, 70
2, 174720, Note_off_c, 0, 76, 0
2, 174720, Note_on_c, 0, 88, 76
2, 174960, Note_off_c, 0, 88, 0
2, 174960, Note_on_c, 0, 75, 76
2, 175200, Note_off_c, 0, 75, 0
2, 175200, Note_on_c, 0, 76, 70
2, 175440, Note_off_c, 0, 76, 0
2, 175440, Note_on_c, 0, 75, 76
2, 175680, Note_off_c, 0, 75, 0
2, 175680, Note_on_c, 0, 76, 76
2, 175920, Note_off_c, 0, 76, 0
2, 175920, Note_on_c, 0, 75, 70
2, 176160, Note_off_c, 0, 75, 0
2, 176160, Note_on_c, 0, 76, 76
2, 176400, Note_off_c, 0, 76, 0
2, 176400, Note_on_c, 0, 71, 76
2, 176640, Note_off_c, 0, 71, 0
2, 176640, Note_on_c, 0, 74, 76
2, 176880, Note_off_c, 0, 74, 0
2, 176880, Note_on_c, 0, 72, 76
2, 177120, Note_off_c, 0, 72, 0
2, 177120, Note_on_c, 0, 69, 76
2, 177120, Note_on_c, 0, 45, 64
2, 177360, Note_off_c, 0, 45, 0
2, 177360, Note_on_c, 0, 52, 70
2, 177600, Note_off_c, 0, 52, 0
2, 177600, Note_off_c, 0, 69, 0
2, 177600, Note_on_c, 0, 57, 76
2, 177840, Note_off_c, 0, 57, 0
2, 177840, Note_on_c, 0, 60, 76
2, 178080, Note_off_c, 0, 60, 0
2, 178080, Note_on_c, 0, 64, 76
2, 178320, Note_off_c, 0, 64, 0
2, 178320, Note_on_c, 0, 69, 76
2, 178560, Note_off_c, 0, 69, 0
2, 178560, Note_on_c, 0, 71, 76
2, 178560, Note_on_c, 0, 40, 64
2, 178800, Note_off_c, 0, 40, 0
2, 178800, Note_on_c, 0, 52, 70
2, 179040, Note_off_c, 0, 52, 0
2, 179040, Note_off_c, 0, 71, 0
2, 179040, Note_on_c, 0, 56, 70
2, 179280, Note_off_c, 0, 56, 0
2, 179280, Note_on_c, 0, 64, 70
2, 179520, Note_off_c, 0, 64, 0
2, 179520, Note_on_c, 0, 68, 76
2, 179760, Note_off_c, 0, 68, 0
2, 179760, Note_on_c, 0, 71, 76
2, 180000, Note_off_c, 0, 71, 0
2, 180000, Note_on_c, 0, 72, 76
2, 180000, Note_on_c, 0, 45, 76
2, 180240, Note_off_c, 0, 45, 0
2, 180240, Note_on_c, 0, 52, 76
2, 180480, Note_off_c, 0, 52, 0
2, 180480, Note_off_c, 0, 72, 0
2, 180480, Note_on_c, 0, 57, 76
2, 180720, Note_off_c, 0, 57, 0
2, 180720, Note_on_c, 0, 64, 76
2, 180960, Note_off_c, 0, 64, 0
2, 180960, Note_on_c, 0, 76, 76
2, 181200, Note_off_c, 0, 76, 0
2, 181200, Note_on_c, 0, 75, 76
2, 181440, Note_off_c, 0, 75, 0
2, 181440, Note_on_c, 0, 76, 76
2, 181680, Note_off_c, 0, 76, 0
2, 181680, Note_on_c, 0, 75, 76
2, 181920, Note_off_c, 0, 75, 0
2, 181920, Note_on_c, 0, 76, 76
2, 182160, Note_off_c, 0, 76, 0
2, 182160, Note_on_c, 0, 71, 76
2, 182400, Note_off_c, 0, 71, 0
2, 182400, Note_on_c, 0, 74, 76
2, 182640, Note_off_c, 0, 74, 0
2, 182640, Note_on_c, 0, 72, 76
2, 182880, Note_off_c, 0, 72, 0
2, 182880, Note_on_c, 0, 69, 76
2, 182880, Note_on_c, 0, 45, 76
2, 183120, Note_off_c, 0, 45, 0
2, 183120, Note_on_c, 0, 52, 76
2, 183360, Note_off_c, 0, 52, 0
2, 183360, Note_off_c, 0, 69, 0
2, 183360, Note_on_c, 0, 57, 76
2, 183600, Note_off_c, 0, 57, 0
2, 183600, Note_on_c, 0, 60, 76
2, 183840, Note_off_c, 0, 60, 0
2, 183840, Note_on_c, 0, 64, 76
2, 184080, Note_off_c, 0, 64, 0
2, 184080, Note_on_c, 0, 69, 70
2, 184320, Note_off_c, 0, 69, 0
2, 184320, Note_on_c, 0, 71, 64
2, 184320, Note_on_c, 0, 40, 64
2, 184560, Note_off_c, 0, 40, 0
2, 184560, Note_on_c, 0, 52, 64
2, 184800, Note_off_c, 0, 52, 0
2, 184800, Note_off_c, 0, 71, 0
2, 184800, Note_on_c, 0, 56, 57
2, 185040, Note_off_c, 0, 56, 0
2, 185040, Note_on_c, 0, 64, 51
2, 185280, Note_off_c, 0, 64, 0
2, 185280, Note_on_c, 0, 72, 51
2, 185520, Note_off_c, 0, 72, 0
2, 185520, Note_on_c, 0, 71, 51
2, 185760, Note_off_c, 0, 71, 0
2, 185760, Sequencer_specific, 3, 5, 15, 14
2, 185760, Note_on_c, 0, 60, 45
2, 185760, Note_on_c, 0, 69, 45
2, 185760, Note_on_c, 0, 45, 45
2, 185760, Note_on_c, 0, 33, 45
2, 187200, Note_off_c, 0, 45, 0
2, 187200, Note_off_c, 0, 33, 0
2, 187200, Note_off_c, 0, 60, 0
2, 187200, Note_off_c, 0, 69, 0